<svg width="83" height="26" viewBox="0 0 83 26" fill="none" xmlns="http://www.w3.org/2000/svg">
<path d="M49.3426 22.9243C49.3426 23.2031 49.5756 23.4253 49.8541 23.412L53.9846 23.2146C54.2449 23.2021 54.4496 22.9875 54.4496 22.7269V9.67411C54.4496 9.3968 54.2189 9.17516 53.9418 9.18624L49.8113 9.35146C49.5495 9.36194 49.3426 9.57726 49.3426 9.83933V22.9243Z" fill="#949494"/>
<path d="M49.9846 6.74374C50.4904 7.24958 51.1227 7.5025 51.8815 7.5025C52.6792 7.5025 53.3212 7.24958 53.8076 6.74374C54.3134 6.21845 54.5663 5.56669 54.5663 4.78848C54.5663 4.02972 54.3134 3.3877 53.8076 2.8624C53.3212 2.33711 52.6792 2.07446 51.8815 2.07446C51.1227 2.07446 50.4904 2.33711 49.9846 2.8624C49.4788 3.3877 49.2258 4.02972 49.2258 4.78848C49.2258 5.56669 49.4788 6.21845 49.9846 6.74374Z" fill="#949494"/>
<path fill-rule="evenodd" clip-rule="evenodd" d="M37.054 15.0609V22.1555C37.054 22.3905 36.8865 22.5922 36.6555 22.6354L32.4082 23.4294C32.1078 23.4856 31.8303 23.2551 31.8303 22.9495V3.23393C31.8303 2.96427 32.0489 2.74567 32.3185 2.74567H40.6435C42.0443 2.74567 43.27 3.00832 44.3206 3.53361C45.3906 4.05891 46.2272 4.77875 46.8303 5.69315C47.4334 6.60755 47.735 7.6776 47.735 8.90328C47.735 10.129 47.4237 11.2087 46.8011 12.1426C46.198 13.057 45.3517 13.7768 44.2622 14.3021C43.7909 14.521 43.285 14.6925 42.7445 14.8166L48.2846 22.3573C48.5543 22.7244 48.2188 23.2282 47.776 23.1209L43.1967 22.0105C43.0928 21.9853 43 21.9267 42.9327 21.8437L37.4275 15.0609H37.054ZM37.054 11.3255H39.9139C40.77 11.3255 41.4217 11.1212 41.8692 10.7126C42.3361 10.2846 42.5696 9.71068 42.5696 8.99083C42.5696 8.29044 42.3361 7.72624 41.8692 7.29822C41.4217 6.85075 40.77 6.62701 39.9139 6.62701H37.054V11.3255Z" fill="#949494"/>
<path d="M61.3774 23.845C60.5019 23.845 59.6361 23.7282 58.7801 23.4948C57.9435 23.2613 57.1556 22.95 56.4162 22.5609C55.8508 22.24 55.3514 21.8831 54.9181 21.4902C54.7224 21.3128 54.7247 21.0101 54.9095 20.8214L56.9978 18.6891C57.1906 18.4923 57.5066 18.496 57.7168 18.6742C58.0998 18.9988 58.532 19.2633 59.0135 19.4675C59.675 19.7399 60.3754 19.8761 61.1147 19.8761C61.5427 19.8761 61.8637 19.8177 62.0777 19.701C62.3112 19.5843 62.4279 19.4189 62.4279 19.2049C62.4279 18.8936 62.2626 18.6601 61.9318 18.5045C61.6205 18.3294 61.2023 18.1835 60.677 18.0667C60.1711 17.9306 59.6361 17.7749 59.0719 17.5998C58.5077 17.4053 57.9629 17.1523 57.4377 16.8411C56.9124 16.5298 56.4843 16.092 56.1536 15.5278C55.8423 14.9636 55.6867 14.2438 55.6867 13.3683C55.6867 12.4539 55.9299 11.6562 56.4162 10.9753C56.9221 10.2749 57.6225 9.73013 58.5174 9.34103C59.4124 8.93247 60.463 8.72819 61.6692 8.72819C62.8949 8.72819 64.0622 8.94219 65.1711 9.37021C66.1143 9.71769 67.0617 10.3908 67.7428 11.099C67.9333 11.2972 67.8959 11.6125 67.678 11.7801L65.2626 13.6381C65.0595 13.7944 64.7737 13.7627 64.5832 13.5913C64.2515 13.2928 63.9381 13.1373 63.5077 12.9889C62.9435 12.7749 62.4279 12.6679 61.961 12.6679C61.5135 12.6679 61.1925 12.736 60.998 12.8722C60.8034 12.9889 60.7062 13.1543 60.7062 13.3683C60.7062 13.6212 60.8618 13.8255 61.1731 13.9811C61.5038 14.1368 61.9221 14.2827 62.4279 14.4189C62.9532 14.5356 63.4883 14.6912 64.033 14.8858C64.5972 15.0804 65.1322 15.3527 65.6381 15.7029C66.1634 16.0337 66.5817 16.4811 66.8929 17.0453C67.2237 17.6095 67.389 18.3391 67.389 19.2341C67.389 20.6543 66.8443 21.7827 65.7548 22.6193C64.6653 23.4364 63.2062 23.845 61.3774 23.845Z" fill="#949494"/>
<path fill-rule="evenodd" clip-rule="evenodd" d="M71.2034 22.8236C72.429 23.4461 73.8396 23.7574 75.4349 23.7574C76.6995 23.7574 77.8279 23.5531 78.8201 23.1446C79.6857 22.795 80.4373 22.3031 81.075 21.6687C81.2575 21.4872 81.2467 21.1937 81.0647 21.0117L79.1006 19.0476C78.9012 18.8482 78.5768 18.8612 78.368 19.0506C78.0339 19.3535 77.6691 19.5898 77.2734 19.7594C76.7481 19.9928 76.1353 20.1096 75.4349 20.1096C74.6956 20.1096 74.073 19.9636 73.5672 19.6718C73.0613 19.38 72.6722 18.952 72.3999 18.3878C72.3332 18.2449 72.2747 18.095 72.2243 17.9381L81.8551 17.8934C82.0783 17.8924 82.2744 17.7404 82.3183 17.5216C82.3662 17.2827 82.3966 17.0656 82.4096 16.8702C82.4485 16.559 82.468 16.2574 82.468 15.9656C82.468 14.5842 82.147 13.3586 81.505 12.2885C80.8824 11.199 80.0069 10.3527 78.8785 9.74959C77.7695 9.12702 76.4952 8.81573 75.0555 8.81573C73.5769 8.81573 72.2442 9.14647 71.0574 9.80796C69.8901 10.45 68.966 11.3352 68.2851 12.4636C67.6041 13.5726 67.2637 14.8469 67.2637 16.2866C67.2637 17.7457 67.6139 19.0395 68.3142 20.1679C69.0146 21.2963 69.9777 22.1815 71.2034 22.8236ZM72.2135 14.6603C72.2589 14.515 72.3113 14.3762 72.3707 14.2438C72.6236 13.6796 72.9835 13.2418 73.4505 12.9305C73.9174 12.6193 74.4719 12.4636 75.1139 12.4636C75.7365 12.4636 76.252 12.5998 76.6606 12.8722C77.0691 13.1445 77.3804 13.5434 77.5944 14.0687C77.6647 14.2348 77.7245 14.4167 77.7738 14.6142L72.2135 14.6603Z" fill="#949494"/>
<path d="M6.8907 1.00498C6.8907 0.715383 7.10634 0.471107 7.3937 0.435187L10.839 0.00451883C11.1818 -0.0383221 11.4845 0.228914 11.4845 0.574309V11.9063C11.4845 12.2517 11.1818 12.5189 10.839 12.4761L7.3937 12.0454C7.10634 12.0095 6.8907 11.7652 6.8907 11.4756V1.00498Z" fill="#949494"/>
<path d="M0 2.44054C0 2.15094 0.215642 1.90667 0.503001 1.87075L3.94835 1.44008C4.29108 1.39724 4.5938 1.66448 4.5938 2.00987V11.045C4.5938 11.3904 4.29108 11.6576 3.94835 11.6148L0.503 11.1841C0.215642 11.1482 0 10.9039 0 10.6143V2.44054Z" fill="#949494"/>
<path d="M17.9402 0.963548C18.1959 1.02745 18.3752 1.25713 18.3752 1.52063V6.30762C18.3752 6.59721 18.1595 6.84149 17.8722 6.87741L14.4268 7.30808C14.0841 7.35092 13.7814 7.08368 13.7814 6.73829V0.659291C13.7814 0.285717 14.1325 0.0116064 14.4949 0.102211L17.9402 0.963548Z" fill="#949494"/>
<path d="M24.6917 2.95619C24.6917 2.6927 24.5123 2.46302 24.2567 2.39911L20.8114 1.53777C20.4489 1.44717 20.0979 1.72128 20.0979 2.09485V6.45117C20.0979 6.79657 20.4006 7.06381 20.7433 7.02096L24.1887 6.5903C24.476 6.55438 24.6917 6.3101 24.6917 6.02051V2.95619Z" fill="#949494"/>
<path d="M24.6917 8.82432L13.4943 9.11143C13.6563 11.2176 15.4125 12.8439 17.5249 12.8439H20.0979V15.2877L0 13.4181V25.3894L24.6917 23.6667V8.82432Z" fill="#949494"/>
</svg>
