<svg width="108" height="30" viewBox="0 0 108 30" fill="none" xmlns="http://www.w3.org/2000/svg">
<path d="M60.7897 22.2706V4.8916H63.9386V22.2706H60.7897Z" fill="#949494"/>
<path d="M34.1348 5.37235L40.7931 22.2706H43.3891L50.1196 5.37235H46.6342L42.1304 17.2365L37.6682 5.37235H34.1348Z" fill="#949494"/>
<path fill-rule="evenodd" clip-rule="evenodd" d="M50.5898 21.7177C51.5353 22.2465 52.5929 22.5109 53.7627 22.5109C54.9325 22.5109 55.9822 22.2465 56.9116 21.7177C57.8571 21.1729 58.6022 20.4437 59.1471 19.5303C59.6919 18.6009 59.9643 17.5673 59.9643 16.4295C59.9643 15.2917 59.6919 14.2742 59.1471 13.3768C58.6022 12.4633 57.8571 11.7422 56.9116 11.2134C55.9822 10.6686 54.9245 10.3961 53.7387 10.3961C52.5849 10.3961 51.5353 10.6686 50.5898 11.2134C49.6443 11.7422 48.8992 12.4633 48.3543 13.3768C47.8095 14.2742 47.5371 15.2917 47.5371 16.4295C47.5371 17.5673 47.8095 18.6009 48.3543 19.5303C48.9152 20.4437 49.6603 21.1729 50.5898 21.7177ZM55.3011 19.1938C54.8524 19.4502 54.3316 19.5784 53.7387 19.5784C53.1618 19.5784 52.649 19.4502 52.2003 19.1938C51.7516 18.9214 51.399 18.5528 51.1427 18.0881C50.8863 17.6073 50.7581 17.0625 50.7581 16.4535C50.7581 15.8446 50.8863 15.3078 51.1427 14.843C51.399 14.3783 51.7516 14.0178 52.2003 13.7614C52.649 13.4889 53.1618 13.3527 53.7387 13.3527C54.3316 13.3527 54.8524 13.4889 55.3011 13.7614C55.7498 14.0178 56.1023 14.3783 56.3587 14.843C56.6151 15.3078 56.7433 15.8446 56.7433 16.4535C56.7433 17.0625 56.6151 17.6073 56.3587 18.0881C56.1184 18.5528 55.7658 18.9214 55.3011 19.1938Z" fill="#949494"/>
<path d="M67.7381 21.8619C68.5394 22.2946 69.4528 22.5109 70.4784 22.5109C71.504 22.5109 72.4094 22.3026 73.1946 21.886C73.9959 21.4533 74.6128 20.8524 75.0455 20.0832C75.4942 19.314 75.7185 18.4166 75.7185 17.391V10.6606H72.5696V17.3189C72.5696 18.04 72.3854 18.6009 72.0168 19.0015C71.6482 19.4021 71.1354 19.6024 70.4784 19.6024C70.0457 19.6024 69.6691 19.5143 69.3486 19.338C69.0281 19.1617 68.7878 18.9053 68.6275 18.5688C68.4673 18.2163 68.3872 17.7996 68.3872 17.3189V10.6606H65.2142V17.391C65.2142 18.4006 65.4386 19.2899 65.8873 20.0591C66.336 20.8283 66.9529 21.4293 67.7381 21.8619Z" fill="#949494"/>
<path d="M77.0242 22.2706V10.6606H80.1731V11.6679C80.4548 11.3929 80.7753 11.1613 81.1346 10.973C81.8077 10.6045 82.5688 10.4202 83.4182 10.4202C84.2194 10.4202 84.9485 10.6045 85.6056 10.973C86.1562 11.2685 86.6111 11.6708 86.9704 12.1801C87.3588 11.6845 87.8333 11.2901 88.3939 10.9971C89.099 10.6125 89.8842 10.4202 90.7495 10.4202C91.6149 10.4202 92.3921 10.6045 93.0812 10.973C93.7702 11.3256 94.3151 11.8384 94.7157 12.5114C95.1163 13.1845 95.3166 13.9857 95.3166 14.9152V22.2706H92.1677V15.4199C92.1677 14.7469 91.9514 14.2261 91.5187 13.8575C91.1021 13.4729 90.5813 13.2806 89.9563 13.2806C89.5557 13.2806 89.1791 13.3688 88.8265 13.545C88.49 13.7053 88.2256 13.9456 88.0333 14.2661C87.841 14.5866 87.7449 14.9712 87.7449 15.4199V22.2706H84.596V15.4199C84.596 14.7469 84.3796 14.2261 83.947 13.8575C83.5303 13.4729 83.0095 13.2806 82.3846 13.2806C81.9679 13.2806 81.5913 13.3688 81.2548 13.545C80.9183 13.7053 80.6539 13.9456 80.4616 14.2661C80.2693 14.5866 80.1731 14.9712 80.1731 15.4199V22.2706H77.0242Z" fill="#949494"/>
<path fill-rule="evenodd" clip-rule="evenodd" d="M98.9748 21.7417C99.9203 22.2545 101.002 22.5109 102.22 22.5109C103.165 22.5109 104.039 22.3427 104.84 22.0062C105.657 21.6696 106.346 21.1729 106.907 20.5158L105.056 18.665C104.704 19.0656 104.287 19.3701 103.806 19.5784C103.326 19.7707 102.789 19.8668 102.196 19.8668C101.539 19.8668 100.962 19.7306 100.465 19.4582C99.9683 19.1698 99.5837 18.7691 99.3113 18.2563C99.2088 18.045 99.1269 17.8196 99.0654 17.5802L107.556 17.5593C107.62 17.2868 107.66 17.0465 107.676 16.8381C107.708 16.6138 107.724 16.3975 107.724 16.1891C107.724 15.0834 107.476 14.0979 106.979 13.2325C106.498 12.3512 105.825 11.6621 104.96 11.1653C104.111 10.6525 103.125 10.3961 102.003 10.3961C100.866 10.3961 99.8321 10.6686 98.9027 11.2134C97.9732 11.7422 97.2361 12.4633 96.6912 13.3768C96.1624 14.2742 95.898 15.2997 95.898 16.4535C95.898 17.6234 96.1704 18.665 96.7153 19.5784C97.2762 20.4918 98.0293 21.2129 98.9748 21.7417ZM99.0681 15.224C99.1244 15.0114 99.1974 14.8124 99.2873 14.6267C99.5437 14.1139 99.9042 13.7213 100.369 13.4489C100.834 13.1604 101.379 13.0162 102.003 13.0162C102.596 13.0162 103.093 13.1444 103.494 13.4008C103.91 13.6412 104.223 13.9937 104.431 14.4584C104.539 14.6822 104.625 14.9319 104.688 15.2077L99.0681 15.224Z" fill="#949494"/>
<path fill-rule="evenodd" clip-rule="evenodd" d="M14.7824 29.2514C22.86 29.2514 29.4081 22.7032 29.4081 14.6257C29.4081 6.54814 22.86 0 14.7824 0C6.70488 0 0.156738 6.54814 0.156738 14.6257C0.156738 22.7032 6.70488 29.2514 14.7824 29.2514ZM20.8396 5.67362C21.0132 5.82042 21.1131 6.03621 21.1131 6.26355L21.1128 9.20197L21.1131 9.39533L21.1128 9.41844V19.2547C21.1128 20.963 19.728 22.3477 18.0197 22.3477C16.3114 22.3477 14.9267 20.963 14.9267 19.2547C14.9267 17.5464 16.3114 16.1615 18.0197 16.1615C18.5831 16.1615 19.1112 16.3122 19.5662 16.5754V10.3081L11.8333 11.5972V20.8012C11.8333 22.5095 10.4485 23.8943 8.74026 23.8943C7.03198 23.8943 5.64721 22.5095 5.64721 20.8012C5.64721 19.0929 7.03198 17.708 8.74026 17.708C9.30368 17.708 9.8321 17.8587 10.2868 18.1219L10.2871 10.9419L10.2868 10.7485L10.2871 10.7254V7.81007C10.2871 7.43219 10.5603 7.10953 10.9335 7.04734L20.2126 5.50082C20.4369 5.46344 20.6662 5.52665 20.8396 5.67362Z" fill="#949494"/>
</svg>
