<svg width="95" height="25" viewBox="0 0 95 25" fill="none" xmlns="http://www.w3.org/2000/svg">
<path d="M50.1712 12.0362C49.5827 12.6083 49.2885 13.4419 49.2885 14.537V21.3773H45.3658V7.94186H48.4795V12.3755C48.6286 11.11 49.0045 10.0898 49.6073 9.31482C50.4245 8.2851 51.6013 7.77024 53.1377 7.77024H53.6526V11.1536H52.6719C51.5932 11.1536 50.7596 11.4478 50.1712 12.0362Z" fill="#949494"/>
<path fill-rule="evenodd" clip-rule="evenodd" d="M62.0618 19.7346C62.2303 19.4489 62.3692 19.1337 62.4786 18.789V21.3773H65.5923V13.1395C65.5923 11.8973 65.3471 10.8839 64.8568 10.0994C64.3664 9.29848 63.6472 8.70189 62.6992 8.30962C61.7676 7.91734 60.6153 7.72121 59.2423 7.72121C58.7683 7.72121 58.2616 7.72938 57.7223 7.74572C57.1829 7.76207 56.6598 7.78659 56.1532 7.81927C55.6465 7.85196 55.2052 7.88465 54.8292 7.91734V11.2272C55.3359 11.1945 55.8998 11.1618 56.5209 11.1291C57.142 11.0964 57.7468 11.0719 58.3352 11.0555C58.9236 11.0392 59.3976 11.031 59.7572 11.031C60.4764 11.031 60.9994 11.2026 61.3263 11.5459C61.6532 11.8891 61.8166 12.404 61.8166 13.0905V13.1395H59.3894C58.1963 13.1395 57.142 13.2948 56.2267 13.6053C55.3114 13.8995 54.6004 14.3654 54.0937 15.0028C53.587 15.6239 53.3337 16.4248 53.3337 17.4055C53.3337 18.3044 53.538 19.0808 53.9466 19.7346C54.3552 20.3721 54.9191 20.8624 55.6383 21.2056C56.3738 21.5489 57.2237 21.7205 58.1881 21.7205C59.1197 21.7205 59.9043 21.5489 60.5417 21.2056C61.1955 20.8624 61.7022 20.3721 62.0618 19.7346ZM61.4243 17.9694C61.6532 17.5935 61.7839 17.0704 61.8166 16.4003V15.3215H59.3649C58.6784 15.3215 58.1472 15.4931 57.7713 15.8364C57.4117 16.1633 57.2319 16.6128 57.2319 17.1848C57.2319 17.7242 57.4117 18.1655 57.7713 18.5088C58.1472 18.8357 58.6784 18.9991 59.3649 18.9991C59.8062 18.9991 60.1985 18.9256 60.5417 18.7784C60.9013 18.615 61.1955 18.3453 61.4243 17.9694Z" fill="#949494"/>
<path d="M73.7258 21.8431C72.5654 21.8431 71.552 21.6551 70.6857 21.2792C69.8358 20.8869 69.1248 20.3639 68.5527 19.7101C67.9806 19.0563 67.5557 18.3208 67.2778 17.5036C67 16.67 66.861 15.8119 66.861 14.9293V14.4634C66.861 13.5481 67.0081 12.6737 67.3023 11.8401C67.5965 10.9902 68.0297 10.2383 68.6017 9.58451C69.1738 8.93072 69.8848 8.41586 70.7347 8.03993C71.601 7.664 72.5899 7.47603 73.7013 7.47603C74.9108 7.47603 75.9814 7.71303 76.9131 8.18703C77.8447 8.64469 78.5884 9.2903 79.1441 10.1239C79.6998 10.9575 80.0104 11.9136 80.0758 12.9924H76.2266C76.1612 12.3876 75.916 11.881 75.4911 11.4723C75.0825 11.0474 74.4859 10.8349 73.7013 10.8349C73.0475 10.8349 72.5 10.9983 72.0587 11.3252C71.6337 11.6521 71.315 12.1016 71.1025 12.6737C70.89 13.2457 70.7838 13.924 70.7838 14.7086C70.7838 15.4278 70.8818 16.0816 71.078 16.67C71.2741 17.242 71.5847 17.6915 72.0096 18.0184C72.4509 18.329 73.023 18.4842 73.7258 18.4842C74.2489 18.4842 74.6902 18.3943 75.0498 18.2146C75.4257 18.0184 75.7199 17.7569 75.9324 17.43C76.1612 17.0868 76.3001 16.6945 76.3492 16.2532H80.1738C80.1248 17.3646 79.8143 18.3453 79.2422 19.1952C78.6701 20.0288 77.9101 20.6826 76.9621 21.1566C76.0141 21.6143 74.9353 21.8431 73.7258 21.8431Z" fill="#949494"/>
<path fill-rule="evenodd" clip-rule="evenodd" d="M84.5705 21.2547C85.4531 21.647 86.4665 21.8431 87.6106 21.8431C88.7384 21.8431 89.7354 21.647 90.6017 21.2547C91.468 20.8624 92.1871 20.3149 92.7592 19.612C93.3313 18.9092 93.7154 18.1083 93.9115 17.2093H90.3075C90.144 17.618 89.8335 17.9612 89.3758 18.2391C88.9182 18.5169 88.3298 18.6559 87.6106 18.6559C86.826 18.6559 86.1886 18.4924 85.6982 18.1655C85.2079 17.8386 84.8483 17.381 84.6195 16.7926C84.4919 16.4553 84.3999 16.0875 84.3434 15.6893H94.1567V14.3654C94.1567 13.1395 93.8951 12.0117 93.3721 10.982C92.8491 9.93592 92.0891 9.09417 91.092 8.45672C90.1113 7.80293 88.9018 7.47603 87.4635 7.47603C86.3684 7.47603 85.3877 7.67217 84.5214 8.06445C83.6715 8.44038 82.9605 8.95524 82.3884 9.60903C81.8164 10.2628 81.3751 11.0065 81.0645 11.8401C80.7703 12.6573 80.6232 13.5154 80.6232 14.4144V14.9047C80.6232 15.771 80.7703 16.6209 81.0645 17.4545C81.3751 18.2718 81.8164 19.0154 82.3884 19.6856C82.9768 20.3394 83.7042 20.8624 84.5705 21.2547ZM84.3734 13.4582C84.4347 13.1067 84.5249 12.788 84.644 12.5021C84.8892 11.8973 85.2488 11.4396 85.7228 11.1291C86.1968 10.8185 86.777 10.6633 87.4635 10.6633C88.1336 10.6633 88.6893 10.8185 89.1306 11.1291C89.5883 11.4233 89.9315 11.8564 90.1604 12.4285C90.2843 12.7382 90.3746 13.0814 90.4314 13.4582H84.3734Z" fill="#949494"/>
<path d="M36.0257 21.3773V6.98569H30.9997V3.47974H45.0971V6.98569H40.0465V21.3773H36.0257Z" fill="#949494"/>
<path fill-rule="evenodd" clip-rule="evenodd" d="M12.6806 2.24972C7.08939 2.24972 2.55685 6.78226 2.55685 12.3734C2.55685 17.9646 7.08939 22.4972 12.6806 22.4972C18.2717 22.4972 22.8043 17.9646 22.8043 12.3734C22.8043 6.78226 18.2717 2.24972 12.6806 2.24972ZM0.307129 12.3734C0.307129 5.53978 5.84691 0 12.6806 0C19.5142 0 25.054 5.53978 25.054 12.3734C25.054 19.2071 19.5142 24.7469 12.6806 24.7469C5.84691 24.7469 0.307129 19.2071 0.307129 12.3734Z" fill="#949494"/>
<path fill-rule="evenodd" clip-rule="evenodd" d="M18.8533 8.17848C19.1831 7.13975 18.198 6.16417 17.1626 6.50394L10.1092 8.81832C9.70091 8.95229 9.38192 9.27438 9.2519 9.68394L7.06636 16.5684C6.73661 17.6071 7.72166 18.5827 8.75715 18.2429L15.8105 15.9285C16.2188 15.7946 16.5378 15.4725 16.6678 15.0629L18.8533 8.17848ZM12.9585 13.9803C13.846 13.9803 14.5655 13.2609 14.5655 12.3734C14.5655 11.4859 13.846 10.7665 12.9585 10.7665C12.0711 10.7665 11.3516 11.4859 11.3516 12.3734C11.3516 13.2609 12.0711 13.9803 12.9585 13.9803Z" fill="#949494"/>
</svg>
