<svg width="81" height="25" viewBox="0 0 81 25" fill="none" xmlns="http://www.w3.org/2000/svg">
<path d="M20.33 20.9153C20.4331 22.9837 18.4868 24.7616 15.9829 24.8863C13.4791 25.011 11.3658 23.4353 11.2628 21.3669C11.1598 19.2985 13.1061 17.5206 15.6099 17.3959C18.1138 17.2712 20.227 18.8469 20.33 20.9153Z" fill="#949494"/>
<path d="M11.4286 16.7572C11.4844 17.877 10.9118 18.8155 10.1498 18.8534C9.38772 18.8913 8.72476 18.0144 8.669 16.8947C8.61324 15.7749 9.1858 14.8364 9.94784 14.7985C10.7099 14.7605 11.3728 15.6375 11.4286 16.7572Z" fill="#949494"/>
<path d="M14.8645 14.328C14.9202 15.4477 14.3477 16.3862 13.5857 16.4241C12.8236 16.4621 12.1607 15.5851 12.1049 14.4654C12.0491 13.3457 12.6217 12.4072 13.3837 12.3692C14.1458 12.3313 14.8087 13.2082 14.8645 14.328Z" fill="#949494"/>
<path d="M18.4132 14.1512C18.469 15.2709 17.8964 16.2094 17.1344 16.2473C16.3723 16.2853 15.7094 15.4083 15.6536 14.2886C15.5979 13.1688 16.1704 12.2304 16.9325 12.1924C17.6945 12.1545 18.3575 13.0314 18.4132 14.1512Z" fill="#949494"/>
<path d="M22.0737 16.2272C22.1294 17.347 21.5569 18.2855 20.7948 18.3234C20.0328 18.3614 19.3698 17.4844 19.3141 16.3647C19.2583 15.2449 19.8309 14.3064 20.5929 14.2685C21.3549 14.2306 22.0179 15.1075 22.0737 16.2272Z" fill="#949494"/>
<path d="M8.50158 11.3507C7.32358 13.054 4.69714 13.2788 2.63526 11.8528C0.573384 10.4268 -0.143143 7.89001 1.03486 6.18672C2.21285 4.48342 4.83929 4.25863 6.90117 5.68463C8.96305 7.11063 9.67957 9.64742 8.50158 11.3507Z" fill="#949494"/>
<path d="M3.97382 2.63153C3.3361 3.55361 2.31042 3.94928 1.6829 3.51528C1.05537 3.08128 1.06362 1.98196 1.70134 1.05988C2.33905 0.137796 3.36473 -0.257874 3.99226 0.176126C4.61979 0.610125 4.61153 1.70945 3.97382 2.63153Z" fill="#949494"/>
<path d="M8.17797 2.79704C7.54025 3.71913 6.51457 4.1148 5.88705 3.6808C5.25952 3.2468 5.26777 2.14748 5.90549 1.22539C6.5432 0.303312 7.56888 -0.0923578 8.19641 0.341642C8.82394 0.775641 8.81568 1.87496 8.17797 2.79704Z" fill="#949494"/>
<path d="M11.1005 4.81795C10.4628 5.74004 9.43715 6.1357 8.80962 5.7017C8.1821 5.26771 8.19035 4.16838 8.82806 3.2463C9.46578 2.32422 10.4915 1.92855 11.119 2.36255C11.7465 2.79655 11.7383 3.89587 11.1005 4.81795Z" fill="#949494"/>
<path d="M12.7393 8.69368C12.1016 9.61577 11.0759 10.0114 10.4483 9.57744C9.82082 9.14344 9.82908 8.04412 10.4668 7.12203C11.1045 6.19995 12.1302 5.80428 12.7577 6.23828C13.3852 6.67228 13.377 7.7716 12.7393 8.69368Z" fill="#949494"/>
<path d="M28.9032 19.9055C27.9154 19.4185 27.1083 18.7854 26.4824 18.0062C25.8561 17.2132 25.3902 16.3644 25.084 15.4599C24.7918 14.5417 24.6456 13.6513 24.6456 12.7886V12.3293C24.6456 11.3833 24.7985 10.451 25.1047 9.53263C25.4109 8.6005 25.8771 7.7586 26.5031 7.00726C27.1433 6.25591 27.9432 5.65766 28.9032 5.2125C29.8772 4.75323 31.0251 4.52368 32.347 4.52368C33.7246 4.52368 34.9418 4.7811 35.9994 5.29592C37.0569 5.81075 37.8986 6.52726 38.5249 7.44563C39.1648 8.35006 39.5406 9.41437 39.6517 10.6389H36.208C36.1108 10.0266 35.8879 9.50494 35.5403 9.07353C35.1923 8.64213 34.7403 8.30826 34.1837 8.07174C33.641 7.83523 33.0287 7.71697 32.347 7.71697C31.6653 7.71697 31.0601 7.83523 30.5313 8.07174C30.0026 8.30826 29.5574 8.64213 29.1955 9.07353C29.0799 9.2166 28.9729 9.36884 28.8744 9.53025C28.8472 9.57477 28.8207 9.61996 28.7948 9.66584L28.7588 9.73058C28.7323 9.77968 28.7065 9.82946 28.6813 9.87993C28.6416 9.95961 28.6035 10.0412 28.5675 10.1248C28.5481 10.1698 28.5294 10.2152 28.5111 10.2612C28.4961 10.2981 28.4815 10.3355 28.4672 10.3732C28.4373 10.4532 28.4088 10.5348 28.3816 10.618C28.2005 11.2023 28.1101 11.8563 28.1101 12.5798C28.1101 13.2895 28.2005 13.9433 28.3816 14.5417C28.403 14.6056 28.4251 14.6687 28.4482 14.7309L28.4839 14.8231C28.6698 15.2928 28.9138 15.7138 29.2162 16.0861C29.5921 16.5175 30.0511 16.8513 30.5938 17.0879C31.1365 17.3106 31.7557 17.4219 32.4513 17.4219C33.5088 17.4219 34.3991 17.1645 35.123 16.6497C35.8604 16.1348 36.3055 15.4253 36.4585 14.5209H39.8815C39.7561 15.6339 39.3806 16.6566 38.7543 17.5889C38.1423 18.5071 37.3002 19.2445 36.2291 19.8011C35.1716 20.3438 33.9122 20.6152 32.4513 20.6152C31.074 20.6152 29.8911 20.3785 28.9032 19.9055Z" fill="#949494"/>
<path d="M41.0668 20.2186V4.98278H44.4272V20.2186H41.0668Z" fill="#949494"/>
<path d="M47.4309 19.3003C48.1405 20.149 49.1562 20.5734 50.4781 20.5734H50.6242C51.487 20.5734 52.3936 20.5943 52.9781 20.2186C53.3805 19.96 53.9364 19.5956 54.3391 19.1438V20.2186H56.9897V8.78129H53.6506V15.5017C53.6506 16.1418 53.4627 16.6497 53.0869 17.0253C52.7114 17.401 52.2244 17.5889 51.626 17.5889C51.0415 17.5889 50.5756 17.408 50.2276 17.0462C49.88 16.6845 49.706 16.1975 49.706 15.5852V8.78129H46.3666V15.4183C46.3666 17.1436 46.7214 18.4376 47.4309 19.3003Z" fill="#949494"/>
<path fill-rule="evenodd" clip-rule="evenodd" d="M64.1076 20.6152C63.1337 20.6152 62.2709 20.4482 61.5195 20.1143C60.7821 19.7802 60.1629 19.3351 59.6621 18.7785C59.1751 18.2081 58.7993 17.575 58.5349 16.8792C58.2844 16.1697 58.1594 15.446 58.1594 14.7086V14.2913C58.1594 13.526 58.2844 12.7954 58.5349 12.0998C58.7993 11.3903 59.1751 10.7572 59.6621 10.2005C60.149 9.64392 60.7542 9.20572 61.4777 8.88561C62.2151 8.55174 63.0501 8.38472 63.9822 8.38472C65.2066 8.38472 66.2362 8.66303 67.0712 9.21966C67.92 9.76235 68.567 10.4789 69.0122 11.3694C69.4574 12.2459 69.68 13.2059 69.68 14.2495V15.3765H61.3262C61.3741 15.7155 61.4526 16.0286 61.5613 16.3158C61.756 16.8167 62.0622 17.2063 62.4795 17.4844C62.8971 17.7627 63.4395 17.9019 64.1076 17.9019C64.7196 17.9019 65.2205 17.7836 65.6103 17.5471C65.7931 17.436 65.9484 17.3126 66.0762 17.1771C66.2206 17.0238 66.3297 16.8551 66.4034 16.6706H69.4713C69.3044 17.4358 68.9775 18.1175 68.4902 18.7159C68.0033 19.3142 67.3913 19.7802 66.6539 20.1143C65.9164 20.4482 65.0676 20.6152 64.1076 20.6152ZM61.3683 13.3886C61.3625 13.4178 61.3571 13.4474 61.352 13.4773H66.5087C66.4605 13.1565 66.3834 12.8644 66.278 12.6007C66.0833 12.1137 65.791 11.745 65.4016 11.4946C65.0258 11.2302 64.5527 11.098 63.9822 11.098C63.8755 11.098 63.7715 11.1024 63.6706 11.1113C63.5707 11.1201 63.4738 11.1332 63.3797 11.1507C63.0501 11.2119 62.7571 11.3265 62.5006 11.4946C62.0969 11.759 61.7907 12.1486 61.582 12.6634C61.5603 12.7157 61.5396 12.7694 61.5198 12.8243C61.4995 12.881 61.4808 12.9392 61.4631 12.9986C61.4264 13.1227 61.3948 13.2526 61.3683 13.3886Z" fill="#949494"/>
<path d="M71.3709 19.5716C72.2894 20.2395 73.5624 20.5734 75.1905 20.5734C76.2201 20.5734 77.1176 20.4273 77.8829 20.135C78.6481 19.829 79.2394 19.3976 79.6567 18.8412C80.0744 18.2706 80.283 17.6027 80.283 16.8374C80.283 15.7801 79.8932 14.9383 79.114 14.312C78.3348 13.6859 77.2426 13.2965 75.8375 13.1434L74.94 13.0598C74.3416 12.9903 73.9104 12.872 73.646 12.705C73.5386 12.6372 73.453 12.5569 73.3891 12.4637C73.296 12.3277 73.2494 12.1645 73.2494 11.9746C73.2494 11.6407 73.4023 11.3763 73.7085 11.1814C74.0147 10.9867 74.4252 10.8894 74.94 10.8894C75.5938 10.8894 76.0879 11.0216 76.4216 11.2858C76.7557 11.5362 76.9504 11.8494 77.0061 12.225H79.9697C79.9282 11.0007 79.4549 10.0684 78.5506 9.42831C77.6464 8.77432 76.4566 8.44741 74.9818 8.44741C74.0633 8.44741 73.2426 8.58657 72.5188 8.86488C71.8093 9.14303 71.2526 9.55353 70.8493 10.0962C70.4459 10.6389 70.2441 11.3136 70.2441 12.1207C70.2441 13.0946 70.5849 13.8947 71.2666 14.5209C71.9625 15.147 72.999 15.5296 74.3766 15.6688L75.2741 15.7522C76.0254 15.8356 76.547 15.9817 76.8393 16.1906C77.1315 16.3853 77.2776 16.6497 77.2776 16.9835C77.2776 17.3592 77.0826 17.6514 76.6932 17.8601C76.3173 18.055 75.8375 18.1523 75.253 18.1523C74.4877 18.1523 73.9104 18.0132 73.5206 17.7349C73.1451 17.4428 72.9293 17.1157 72.8739 16.754H69.91C69.9657 17.9646 70.4527 18.9037 71.3709 19.5716Z" fill="#949494"/>
</svg>
