<svg width="103" height="21" viewBox="0 0 103 21" fill="none" xmlns="http://www.w3.org/2000/svg">
<path d="M45.2926 19.5187C43.7388 19.5187 42.4048 19.2441 41.2906 18.6948C40.1763 18.1455 39.266 17.4314 38.5598 16.5525C37.8692 15.6737 37.3592 14.7163 37.0296 13.6805C36.7 12.6447 36.5352 11.6481 36.5352 10.6908V10.1729C36.5352 9.10565 36.7 8.05414 37.0296 7.01833C37.3749 5.98251 37.9006 5.04086 38.6068 4.19338C39.3131 3.34589 40.2077 2.67104 41.2906 2.16883C42.3891 1.65092 43.6839 1.39197 45.1749 1.39197C46.7286 1.39197 48.0783 1.67446 49.224 2.23945C50.3853 2.78875 51.3113 3.57346 52.0018 4.59358C52.6924 5.59801 53.1083 6.77507 53.2495 8.12477H49.8831C49.7576 7.34006 49.4751 6.6809 49.0356 6.1473C48.6119 5.59801 48.0704 5.18996 47.4113 4.92316C46.7521 4.64066 46.0066 4.49941 45.1749 4.49941C44.3274 4.49941 43.5741 4.64851 42.9149 4.9467C42.2557 5.22919 41.7064 5.63724 41.267 6.17084C40.8276 6.70445 40.4901 7.33221 40.2547 8.05414C40.035 8.77608 39.9252 9.57648 39.9252 10.4554C39.9252 11.3028 40.035 12.0875 40.2547 12.8095C40.4901 13.5314 40.8354 14.167 41.2906 14.7163C41.7457 15.2499 42.3028 15.6658 42.962 15.964C43.6368 16.2622 44.4137 16.4113 45.2926 16.4113C46.5795 16.4113 47.6624 16.0974 48.5413 15.4696C49.4358 14.8262 49.9773 13.9316 50.1656 12.7859H53.532C53.3751 14.0101 52.9592 15.1322 52.2843 16.1523C51.6095 17.1725 50.6835 17.9886 49.5065 18.6006C48.3294 19.2127 46.9248 19.5187 45.2926 19.5187Z" fill="#949494"/>
<path d="M55.0817 19.0715V1.88634H58.3539V19.0715H55.0817ZM53.4809 4.33463V1.88634H58.3539V4.33463H53.4809Z" fill="#949494"/>
<path d="M67.0568 19.5187C65.9268 19.5187 64.9303 19.3383 64.0671 18.9773C63.2039 18.6163 62.4741 18.1298 61.8777 17.5177C61.2814 16.89 60.8262 16.1837 60.5124 15.399C60.2142 14.6143 60.0651 13.7982 60.0651 12.9507V12.4564C60.0651 11.5775 60.222 10.7457 60.5359 9.96099C60.8655 9.16058 61.3284 8.45434 61.9248 7.84227C62.5369 7.21451 63.2745 6.72799 64.1377 6.38271C65.0009 6.02175 65.9739 5.84127 67.0568 5.84127C68.1397 5.84127 69.1128 6.02175 69.9759 6.38271C70.8391 6.72799 71.5689 7.21451 72.1653 7.84227C72.7773 8.45434 73.2403 9.16058 73.5542 9.96099C73.8681 10.7457 74.025 11.5775 74.025 12.4564V12.9507C74.025 13.7982 73.8681 14.6143 73.5542 15.399C73.256 16.1837 72.8087 16.89 72.2124 17.5177C71.616 18.1298 70.8862 18.6163 70.023 18.9773C69.1598 19.3383 68.1711 19.5187 67.0568 19.5187ZM67.0568 16.7173C67.8572 16.7173 68.5321 16.5447 69.0814 16.1994C69.6307 15.8385 70.0466 15.3598 70.3291 14.7634C70.6116 14.1513 70.7528 13.4608 70.7528 12.6918C70.7528 11.9071 70.6037 11.2165 70.3055 10.6201C70.023 10.0081 69.5993 9.5294 69.0343 9.18412C68.485 8.82316 67.8258 8.64268 67.0568 8.64268C66.2878 8.64268 65.6208 8.82316 65.0558 9.18412C64.5065 9.5294 64.0828 10.0081 63.7846 10.6201C63.4864 11.2165 63.3373 11.9071 63.3373 12.6918C63.3373 13.4608 63.4786 14.1513 63.761 14.7634C64.0592 15.3598 64.483 15.8385 65.0323 16.1994C65.5816 16.5447 66.2564 16.7173 67.0568 16.7173Z" fill="#949494"/>
<path d="M80.0683 19.4717C78.5931 19.4717 77.4474 18.9851 76.6313 18.0121C75.8309 17.0391 75.4307 15.5952 75.4307 13.6805V6.26501H78.7029V13.963C78.7029 14.7477 78.9227 15.3755 79.3621 15.8463C79.8015 16.3014 80.3979 16.529 81.1512 16.529C81.9046 16.529 82.5166 16.2857 82.9874 15.7992C83.474 15.3127 83.7172 14.6535 83.7172 13.8218V6.26501H86.9895V19.0715H84.3999V13.6334H84.6589C84.6589 14.9203 84.4941 15.9954 84.1645 16.8586C83.8349 17.7218 83.3406 18.3731 82.6814 18.8125C82.0223 19.2519 81.1983 19.4717 80.2096 19.4717H80.0683Z" fill="#949494"/>
<path d="M94.8681 19.4952C93.9735 19.4952 93.1495 19.3304 92.3962 19.0008C91.6429 18.6712 90.9916 18.2083 90.4423 17.6119C89.893 17.0155 89.4693 16.325 89.1711 15.5403C88.8729 14.7399 88.7238 13.8767 88.7238 12.9507V12.4564C88.7238 11.5461 88.865 10.6908 89.1475 9.89036C89.4457 9.08996 89.8538 8.39157 90.3717 7.79519C90.9053 7.19881 91.5409 6.73583 92.2785 6.40626C93.0318 6.06098 93.8636 5.88835 94.7739 5.88835C95.7783 5.88835 96.6572 6.10807 97.4105 6.5475C98.1795 6.97125 98.7916 7.61471 99.2467 8.47789C99.7019 9.34107 99.953 10.424 100 11.7266L99.0349 10.5966V1.88634H102.307V19.0715H99.7176V13.6334H100.283C100.235 14.936 99.9687 16.0268 99.4821 16.9057C98.9956 17.7688 98.3522 18.4201 97.5518 18.8596C96.7671 19.2833 95.8725 19.4952 94.8681 19.4952ZM95.5978 16.7409C96.2413 16.7409 96.8298 16.5996 97.3634 16.3171C97.897 16.0189 98.3208 15.5952 98.6347 15.0459C98.9642 14.4809 99.129 13.8218 99.129 13.0684V12.1268C99.129 11.3735 98.9642 10.7457 98.6347 10.2435C98.3051 9.72557 97.8735 9.33322 97.3399 9.06642C96.8063 8.78392 96.2256 8.64268 95.5978 8.64268C94.8916 8.64268 94.2638 8.81531 93.7145 9.16058C93.1809 9.49016 92.7572 9.96099 92.4433 10.5731C92.1451 11.1851 91.996 11.8992 91.996 12.7153C91.996 13.5314 92.153 14.2455 92.4668 14.8576C92.7807 15.4539 93.2045 15.9169 93.7381 16.2465C94.2874 16.5761 94.9073 16.7409 95.5978 16.7409Z" fill="#949494"/>
<path d="M24.2069 20.8785C23.0763 20.8785 22.3797 20.3566 21.2416 19.7418C20.1035 19.1271 16.8121 16.652 16.8121 13.5711C16.8121 11.481 16.2733 9.79056 15.3558 8.44334C14.445 7.10649 13.2113 6.18031 11.9278 5.52649C11.3093 5.21148 10.6657 4.9539 10.0248 4.741C9.65119 4.61697 9.43439 4.21581 9.59648 3.85713C10.6239 1.58254 12.9121 0 15.5702 0C19.1884 0 22.1217 2.93316 22.1217 6.55156C22.1217 7.32567 21.9875 8.06852 21.741 8.75784C22.7852 8.05408 24.0434 7.6434 25.3974 7.6434C29.0157 7.6434 31.949 10.5766 31.949 14.195C31.949 18.5509 28.1213 20.8785 24.2069 20.8785Z" fill="#949494"/>
<path d="M0.283203 13.649C0.283203 17.1025 2.56 19.9799 5.57624 20.6157C6.04179 20.7858 6.54439 20.8785 7.06873 20.8785H17.2479C17.5892 20.8785 17.7379 20.422 17.4773 20.2015C15.6983 18.6962 14.3762 16.5749 14.3762 13.5711C14.3762 11.9205 13.9582 10.7184 13.3425 9.81468C12.7198 8.90057 11.8439 8.21736 10.8222 7.69676C9.79103 7.17156 8.67149 6.83701 7.60242 6.59982C7.35061 6.56804 7.09439 6.55156 6.83476 6.55156C3.21636 6.55156 0.283203 9.72922 0.283203 13.649Z" fill="#949494"/>
</svg>
