<svg width="190" height="56" viewBox="0 0 190 56" fill="none" xmlns="http://www.w3.org/2000/svg">
<rect width="190" height="56" fill="#131313"/>
<path fill-rule="evenodd" clip-rule="evenodd" d="M26.4873 14.4219C26.1778 14.7546 25.9999 15.2666 25.9999 15.9318V39.5955C25.9999 40.2608 26.1778 40.7727 26.4988 41.0938L26.5827 41.1647L39.842 27.9054V27.6075L26.5711 14.3511L26.4873 14.4219Z" fill="white"/>
<path fill-rule="evenodd" clip-rule="evenodd" d="M44.2531 32.3425L39.8304 27.9184V27.6089L44.2545 23.1848L44.35 23.2441L49.5826 26.2176C51.0809 27.0622 51.0809 28.4535 49.5826 29.3097L44.35 32.2832C44.3486 32.2832 44.2531 32.3425 44.2531 32.3425Z" fill="white"/>
<path opacity="0.6" fill-rule="evenodd" clip-rule="evenodd" d="M44.3486 32.2833L39.8305 27.7638L26.4873 41.107C26.9747 41.6305 27.7947 41.6898 28.7116 41.1778L44.3486 32.2833Z" fill="white"/>
<path opacity="0.6" fill-rule="evenodd" clip-rule="evenodd" d="M44.3486 23.2457L28.7116 14.3628C27.7962 13.8393 26.9747 13.9101 26.4873 14.4337L39.829 27.7638L44.3486 23.2457Z" fill="white"/>
<path opacity="0.2" fill-rule="evenodd" clip-rule="evenodd" d="M44.253 32.1878L28.7231 41.0114C27.8554 41.5104 27.0816 41.4757 26.5827 41.023L26.4988 41.1069L26.5827 41.1777C27.0816 41.629 27.8554 41.6651 28.7231 41.1662L44.3601 32.2833L44.253 32.1878Z" fill="black"/>
<path opacity="0.12" fill-rule="evenodd" clip-rule="evenodd" d="M49.5812 29.1551L44.2416 32.1879L44.337 32.2833L49.5696 29.3098C50.3187 28.8817 50.6875 28.3235 50.6875 27.7638C50.6398 28.2758 50.2595 28.7632 49.5812 29.1551Z" fill="black"/>
<path opacity="0.25" fill-rule="evenodd" clip-rule="evenodd" d="M28.7116 14.5176L49.5811 26.3741C50.2594 26.7544 50.6398 27.2534 50.6991 27.7654C50.6991 27.2071 50.3303 26.6474 49.5811 26.2193L28.7116 14.3629C27.2133 13.5067 25.9999 14.2197 25.9999 15.9321V16.0868C25.9999 14.3745 27.2133 13.673 28.7116 14.5176Z" fill="white"/>
<path d="M60.5658 12.624H62.9058C63.9298 12.624 64.6938 12.976 65.1978 13.68C65.7018 14.384 65.9538 15.428 65.9538 16.812C65.9538 18.196 65.7018 19.24 65.1978 19.944C64.6938 20.648 63.9298 21 62.9058 21H60.5658V12.624ZM62.8578 20.124C63.5298 20.124 64.0338 19.892 64.3698 19.428C64.7138 18.964 64.8858 18.308 64.8858 17.46V16.164C64.8858 15.316 64.7138 14.66 64.3698 14.196C64.0338 13.732 63.5298 13.5 62.8578 13.5H61.5738V20.124H62.8578ZM70.2211 21.144C69.7891 21.144 69.3971 21.068 69.0451 20.916C68.7011 20.764 68.4051 20.548 68.1571 20.268C67.9171 19.98 67.7331 19.64 67.6051 19.248C67.4771 18.848 67.4131 18.4 67.4131 17.904C67.4131 17.416 67.4771 16.972 67.6051 16.572C67.7331 16.172 67.9171 15.832 68.1571 15.552C68.4051 15.264 68.7011 15.044 69.0451 14.892C69.3971 14.74 69.7891 14.664 70.2211 14.664C70.6531 14.664 71.0411 14.74 71.3851 14.892C71.7371 15.044 72.0331 15.264 72.2731 15.552C72.5211 15.832 72.7091 16.172 72.8371 16.572C72.9651 16.972 73.0291 17.416 73.0291 17.904C73.0291 18.4 72.9651 18.848 72.8371 19.248C72.7091 19.64 72.5211 19.98 72.2731 20.268C72.0331 20.548 71.7371 20.764 71.3851 20.916C71.0411 21.068 70.6531 21.144 70.2211 21.144ZM70.2211 20.316C70.7571 20.316 71.1891 20.156 71.5171 19.836C71.8451 19.516 72.0091 19.02 72.0091 18.348V17.46C72.0091 16.788 71.8451 16.292 71.5171 15.972C71.1891 15.652 70.7571 15.492 70.2211 15.492C69.6851 15.492 69.2531 15.652 68.9251 15.972C68.5971 16.292 68.4331 16.788 68.4331 17.46V18.348C68.4331 19.02 68.5971 19.516 68.9251 19.836C69.2531 20.156 69.6851 20.316 70.2211 20.316ZM74.1764 14.808H75.0284L75.7364 20.16H75.8444L76.9004 14.808H77.9564L79.0124 20.16H79.1204L79.8284 14.808H80.6564L79.7084 21H78.4604L77.4764 15.816H77.3804L76.3724 21H75.1244L74.1764 14.808ZM82.1877 21V14.808H83.1477V15.816H83.1957C83.2597 15.664 83.3397 15.52 83.4357 15.384C83.5317 15.24 83.6477 15.116 83.7837 15.012C83.9277 14.908 84.0957 14.824 84.2877 14.76C84.4797 14.696 84.7037 14.664 84.9597 14.664C85.6077 14.664 86.1277 14.872 86.5197 15.288C86.9117 15.696 87.1077 16.276 87.1077 17.028V21H86.1477V17.196C86.1477 16.628 86.0237 16.208 85.7757 15.936C85.5277 15.656 85.1637 15.516 84.6837 15.516C84.4917 15.516 84.3037 15.54 84.1197 15.588C83.9357 15.636 83.7717 15.708 83.6277 15.804C83.4837 15.9 83.3677 16.024 83.2797 16.176C83.1917 16.328 83.1477 16.504 83.1477 16.704V21H82.1877ZM89.167 20.184H91.327V12.936H89.167V12.12H92.287V20.184H94.447V21H89.167V20.184ZM99.0023 21.144C98.5703 21.144 98.1783 21.068 97.8263 20.916C97.4823 20.764 97.1863 20.548 96.9383 20.268C96.6983 19.98 96.5143 19.64 96.3863 19.248C96.2583 18.848 96.1943 18.4 96.1943 17.904C96.1943 17.416 96.2583 16.972 96.3863 16.572C96.5143 16.172 96.6983 15.832 96.9383 15.552C97.1863 15.264 97.4823 15.044 97.8263 14.892C98.1783 14.74 98.5703 14.664 99.0023 14.664C99.4343 14.664 99.8223 14.74 100.166 14.892C100.518 15.044 100.814 15.264 101.054 15.552C101.302 15.832 101.49 16.172 101.618 16.572C101.746 16.972 101.81 17.416 101.81 17.904C101.81 18.4 101.746 18.848 101.618 19.248C101.49 19.64 101.302 19.98 101.054 20.268C100.814 20.548 100.518 20.764 100.166 20.916C99.8223 21.068 99.4343 21.144 99.0023 21.144ZM99.0023 20.316C99.5383 20.316 99.9703 20.156 100.298 19.836C100.626 19.516 100.79 19.02 100.79 18.348V17.46C100.79 16.788 100.626 16.292 100.298 15.972C99.9703 15.652 99.5383 15.492 99.0023 15.492C98.4663 15.492 98.0343 15.652 97.7063 15.972C97.3783 16.292 97.2143 16.788 97.2143 17.46V18.348C97.2143 19.02 97.3783 19.516 97.7063 19.836C98.0343 20.156 98.4663 20.316 99.0023 20.316ZM108.538 21C108.162 21 107.894 20.904 107.734 20.712C107.574 20.52 107.474 20.28 107.434 19.992H107.374C107.238 20.352 107.018 20.636 106.714 20.844C106.418 21.044 106.018 21.144 105.514 21.144C104.866 21.144 104.35 20.976 103.966 20.64C103.582 20.304 103.39 19.844 103.39 19.26C103.39 18.684 103.598 18.24 104.014 17.928C104.438 17.616 105.118 17.46 106.054 17.46H107.374V16.848C107.374 16.392 107.246 16.052 106.99 15.828C106.734 15.596 106.37 15.48 105.898 15.48C105.482 15.48 105.142 15.564 104.878 15.732C104.614 15.892 104.402 16.112 104.242 16.392L103.594 15.912C103.674 15.752 103.782 15.596 103.918 15.444C104.054 15.292 104.222 15.16 104.422 15.048C104.622 14.928 104.85 14.836 105.106 14.772C105.362 14.7 105.646 14.664 105.958 14.664C106.686 14.664 107.262 14.848 107.686 15.216C108.118 15.584 108.334 16.096 108.334 16.752V20.16H109.198V21H108.538ZM105.682 20.34C105.93 20.34 106.154 20.312 106.354 20.256C106.562 20.192 106.742 20.112 106.894 20.016C107.046 19.912 107.162 19.792 107.242 19.656C107.33 19.512 107.374 19.36 107.374 19.2V18.18H106.054C105.478 18.18 105.058 18.26 104.794 18.42C104.53 18.58 104.398 18.812 104.398 19.116V19.368C104.398 19.688 104.51 19.932 104.734 20.1C104.966 20.26 105.282 20.34 105.682 20.34ZM114.893 19.992H114.845C114.445 20.76 113.809 21.144 112.937 21.144C112.177 21.144 111.581 20.86 111.149 20.292C110.725 19.724 110.513 18.928 110.513 17.904C110.513 16.88 110.725 16.084 111.149 15.516C111.581 14.948 112.177 14.664 112.937 14.664C113.809 14.664 114.445 15.048 114.845 15.816H114.893V12.12H115.853V21H114.893V19.992ZM113.309 20.292C113.525 20.292 113.729 20.264 113.921 20.208C114.113 20.152 114.281 20.072 114.425 19.968C114.569 19.856 114.681 19.724 114.761 19.572C114.849 19.412 114.893 19.228 114.893 19.02V16.788C114.893 16.58 114.849 16.4 114.761 16.248C114.681 16.088 114.569 15.956 114.425 15.852C114.281 15.74 114.113 15.656 113.921 15.6C113.729 15.544 113.525 15.516 113.309 15.516C112.749 15.516 112.313 15.688 112.001 16.032C111.697 16.368 111.545 16.816 111.545 17.376V18.432C111.545 18.992 111.697 19.444 112.001 19.788C112.313 20.124 112.749 20.292 113.309 20.292ZM127.784 21.144C127.352 21.144 126.96 21.068 126.608 20.916C126.264 20.764 125.968 20.548 125.72 20.268C125.48 19.98 125.296 19.64 125.168 19.248C125.04 18.848 124.976 18.4 124.976 17.904C124.976 17.416 125.04 16.972 125.168 16.572C125.296 16.172 125.48 15.832 125.72 15.552C125.968 15.264 126.264 15.044 126.608 14.892C126.96 14.74 127.352 14.664 127.784 14.664C128.216 14.664 128.604 14.74 128.948 14.892C129.3 15.044 129.596 15.264 129.836 15.552C130.084 15.832 130.272 16.172 130.4 16.572C130.528 16.972 130.592 17.416 130.592 17.904C130.592 18.4 130.528 18.848 130.4 19.248C130.272 19.64 130.084 19.98 129.836 20.268C129.596 20.548 129.3 20.764 128.948 20.916C128.604 21.068 128.216 21.144 127.784 21.144ZM127.784 20.316C128.32 20.316 128.752 20.156 129.08 19.836C129.408 19.516 129.572 19.02 129.572 18.348V17.46C129.572 16.788 129.408 16.292 129.08 15.972C128.752 15.652 128.32 15.492 127.784 15.492C127.248 15.492 126.816 15.652 126.488 15.972C126.16 16.292 125.996 16.788 125.996 17.46V18.348C125.996 19.02 126.16 19.516 126.488 19.836C126.816 20.156 127.248 20.316 127.784 20.316ZM132.555 21V14.808H133.515V15.816H133.563C133.627 15.664 133.707 15.52 133.803 15.384C133.899 15.24 134.015 15.116 134.151 15.012C134.295 14.908 134.463 14.824 134.655 14.76C134.847 14.696 135.071 14.664 135.327 14.664C135.975 14.664 136.495 14.872 136.887 15.288C137.279 15.696 137.475 16.276 137.475 17.028V21H136.515V17.196C136.515 16.628 136.391 16.208 136.143 15.936C135.895 15.656 135.531 15.516 135.051 15.516C134.859 15.516 134.671 15.54 134.487 15.588C134.303 15.636 134.139 15.708 133.995 15.804C133.851 15.9 133.735 16.024 133.647 16.176C133.559 16.328 133.515 16.504 133.515 16.704V21H132.555Z" fill="white"/>
<path d="M66.1144 39.464H66.0024C65.9064 39.688 65.789 39.9067 65.6504 40.12C65.5224 40.3227 65.357 40.504 65.1544 40.664C64.9624 40.824 64.7277 40.952 64.4504 41.048C64.173 41.144 63.853 41.192 63.4904 41.192C62.3277 41.192 61.453 40.696 60.8664 39.704C60.2797 38.712 59.9864 37.3093 59.9864 35.496C59.9864 33.5973 60.3224 32.1467 60.9944 31.144C61.6664 30.1413 62.6957 29.64 64.0824 29.64C64.6264 29.64 65.101 29.7147 65.5064 29.864C65.9224 30.0133 66.2744 30.216 66.5624 30.472C66.8504 30.7173 67.0904 31.0107 67.2824 31.352C67.4744 31.6827 67.629 32.0347 67.7464 32.408L66.1304 32.952C66.045 32.7067 65.949 32.4773 65.8424 32.264C65.7357 32.04 65.6024 31.8427 65.4424 31.672C65.293 31.5013 65.1064 31.368 64.8824 31.272C64.669 31.176 64.4077 31.128 64.0984 31.128C63.3197 31.128 62.7544 31.432 62.4024 32.04C62.061 32.6373 61.8904 33.448 61.8904 34.472V36.248C61.8904 36.76 61.9277 37.2293 62.0024 37.656C62.077 38.0827 62.1997 38.4507 62.3704 38.76C62.5517 39.0587 62.781 39.2933 63.0584 39.464C63.3464 39.6347 63.693 39.72 64.0984 39.72C64.749 39.72 65.245 39.528 65.5864 39.144C65.9384 38.7493 66.1144 38.248 66.1144 37.64V36.632H63.9544V35.288H67.7464V41H66.1144V39.464ZM73.6281 41.192C73.0201 41.192 72.4708 41.0907 71.9801 40.888C71.5001 40.6853 71.0895 40.3973 70.7481 40.024C70.4175 39.6507 70.1615 39.1973 69.9801 38.664C69.7988 38.1307 69.7081 37.5333 69.7081 36.872C69.7081 36.2107 69.7988 35.6133 69.9801 35.08C70.1615 34.5467 70.4175 34.0933 70.7481 33.72C71.0895 33.3467 71.5001 33.0587 71.9801 32.856C72.4708 32.6533 73.0201 32.552 73.6281 32.552C74.2361 32.552 74.7801 32.6533 75.2601 32.856C75.7508 33.0587 76.1615 33.3467 76.4921 33.72C76.8335 34.0933 77.0948 34.5467 77.2761 35.08C77.4575 35.6133 77.5481 36.2107 77.5481 36.872C77.5481 37.5333 77.4575 38.1307 77.2761 38.664C77.0948 39.1973 76.8335 39.6507 76.4921 40.024C76.1615 40.3973 75.7508 40.6853 75.2601 40.888C74.7801 41.0907 74.2361 41.192 73.6281 41.192ZM73.6281 39.816C74.2681 39.816 74.7748 39.624 75.1481 39.24C75.5321 38.8453 75.7241 38.264 75.7241 37.496V36.248C75.7241 35.48 75.5321 34.904 75.1481 34.52C74.7748 34.1253 74.2681 33.928 73.6281 33.928C72.9881 33.928 72.4761 34.1253 72.0921 34.52C71.7188 34.904 71.5321 35.48 71.5321 36.248V37.496C71.5321 38.264 71.7188 38.8453 72.0921 39.24C72.4761 39.624 72.9881 39.816 73.6281 39.816ZM83.2219 41.192C82.6139 41.192 82.0645 41.0907 81.5739 40.888C81.0939 40.6853 80.6832 40.3973 80.3419 40.024C80.0112 39.6507 79.7552 39.1973 79.5739 38.664C79.3925 38.1307 79.3019 37.5333 79.3019 36.872C79.3019 36.2107 79.3925 35.6133 79.5739 35.08C79.7552 34.5467 80.0112 34.0933 80.3419 33.72C80.6832 33.3467 81.0939 33.0587 81.5739 32.856C82.0645 32.6533 82.6139 32.552 83.2219 32.552C83.8299 32.552 84.3739 32.6533 84.8539 32.856C85.3445 33.0587 85.7552 33.3467 86.0859 33.72C86.4272 34.0933 86.6885 34.5467 86.8699 35.08C87.0512 35.6133 87.1419 36.2107 87.1419 36.872C87.1419 37.5333 87.0512 38.1307 86.8699 38.664C86.6885 39.1973 86.4272 39.6507 86.0859 40.024C85.7552 40.3973 85.3445 40.6853 84.8539 40.888C84.3739 41.0907 83.8299 41.192 83.2219 41.192ZM83.2219 39.816C83.8619 39.816 84.3685 39.624 84.7419 39.24C85.1259 38.8453 85.3179 38.264 85.3179 37.496V36.248C85.3179 35.48 85.1259 34.904 84.7419 34.52C84.3685 34.1253 83.8619 33.928 83.2219 33.928C82.5819 33.928 82.0699 34.1253 81.6859 34.52C81.3125 34.904 81.1259 35.48 81.1259 36.248V37.496C81.1259 38.264 81.3125 38.8453 81.6859 39.24C82.0699 39.624 82.5819 39.816 83.2219 39.816ZM97.1356 41.896C97.1356 42.7493 96.7783 43.3787 96.0636 43.784C95.349 44.1893 94.261 44.392 92.7996 44.392C92.085 44.392 91.4823 44.344 90.9916 44.248C90.5116 44.1627 90.117 44.0347 89.8076 43.864C89.509 43.6933 89.2903 43.4853 89.1516 43.24C89.0236 42.9947 88.9596 42.7173 88.9596 42.408C88.9596 41.96 89.0823 41.608 89.3276 41.352C89.5836 41.1067 89.941 40.9253 90.3996 40.808V40.648C90.1223 40.5413 89.8983 40.392 89.7276 40.2C89.5676 40.008 89.4876 39.7573 89.4876 39.448C89.4876 39.0427 89.6263 38.7387 89.9036 38.536C90.181 38.3227 90.5383 38.1627 90.9756 38.056V37.976C90.4743 37.7413 90.085 37.4107 89.8076 36.984C89.5303 36.5573 89.3916 36.0453 89.3916 35.448C89.3916 35.0107 89.4716 34.616 89.6316 34.264C89.7916 33.9013 90.0156 33.5973 90.3036 33.352C90.6023 33.096 90.9543 32.8987 91.3596 32.76C91.7756 32.6213 92.2396 32.552 92.7516 32.552C93.3276 32.552 93.845 32.6427 94.3036 32.824V32.552C94.3036 32.232 94.3943 31.9653 94.5756 31.752C94.757 31.5387 95.0343 31.432 95.4076 31.432H96.9116V32.808H94.9916V33.192C95.3543 33.4373 95.6316 33.752 95.8236 34.136C96.0156 34.5093 96.1116 34.9467 96.1116 35.448C96.1116 35.8853 96.0316 36.2853 95.8716 36.648C95.7116 37 95.4823 37.304 95.1836 37.56C94.8956 37.8053 94.5436 37.9973 94.1276 38.136C93.7223 38.264 93.2636 38.328 92.7516 38.328C92.389 38.328 92.0476 38.296 91.7276 38.232C91.5356 38.2853 91.3436 38.376 91.1516 38.504C90.9596 38.632 90.8636 38.808 90.8636 39.032C90.8636 39.288 90.9863 39.448 91.2316 39.512C91.477 39.576 91.781 39.608 92.1436 39.608H93.9996C95.109 39.608 95.909 39.8213 96.3996 40.248C96.8903 40.664 97.1356 41.2133 97.1356 41.896ZM95.5036 42.008C95.5036 41.7307 95.3916 41.5067 95.1676 41.336C94.9436 41.176 94.5383 41.096 93.9516 41.096H91.0876C90.6823 41.288 90.4796 41.5973 90.4796 42.024C90.4796 42.3333 90.6076 42.6 90.8636 42.824C91.1303 43.048 91.5676 43.16 92.1756 43.16H93.4716C94.133 43.16 94.6343 43.0587 94.9756 42.856C95.3276 42.664 95.5036 42.3813 95.5036 42.008ZM92.7516 37.128C93.317 37.128 93.733 36.9947 93.9996 36.728C94.2663 36.4613 94.3996 36.104 94.3996 35.656V35.224C94.3996 34.776 94.2663 34.4187 93.9996 34.152C93.733 33.8853 93.317 33.752 92.7516 33.752C92.1863 33.752 91.7703 33.8853 91.5036 34.152C91.237 34.4187 91.1036 34.776 91.1036 35.224V35.656C91.1036 36.104 91.237 36.4613 91.5036 36.728C91.7703 36.9947 92.1863 37.128 92.7516 37.128ZM98.8094 39.592H101.545V30.568H98.8094V29.16H103.289V39.592H106.025V41H98.8094V39.592ZM112.179 41.192C111.55 41.192 110.984 41.0907 110.483 40.888C109.982 40.6853 109.56 40.3973 109.219 40.024C108.878 39.6507 108.616 39.2027 108.435 38.68C108.254 38.1467 108.163 37.5493 108.163 36.888C108.163 36.2267 108.254 35.6293 108.435 35.096C108.627 34.5627 108.888 34.1093 109.219 33.736C109.56 33.352 109.971 33.0587 110.451 32.856C110.931 32.6533 111.464 32.552 112.051 32.552C112.627 32.552 113.15 32.6533 113.619 32.856C114.088 33.048 114.488 33.3253 114.819 33.688C115.15 34.0507 115.4 34.4827 115.571 34.984C115.752 35.4853 115.843 36.04 115.843 36.648V37.304H109.923V37.576C109.923 38.2267 110.126 38.76 110.531 39.176C110.936 39.5813 111.496 39.784 112.211 39.784C112.744 39.784 113.198 39.672 113.571 39.448C113.955 39.2133 114.264 38.904 114.499 38.52L115.587 39.48C115.31 39.96 114.883 40.3653 114.307 40.696C113.742 41.0267 113.032 41.192 112.179 41.192ZM112.051 33.88C111.742 33.88 111.454 33.9333 111.187 34.04C110.931 34.1467 110.707 34.3013 110.515 34.504C110.334 34.696 110.19 34.9253 110.083 35.192C109.976 35.4587 109.923 35.752 109.923 36.072V36.184H114.067V36.024C114.067 35.3733 113.88 34.856 113.507 34.472C113.144 34.0773 112.659 33.88 112.051 33.88ZM127.735 41V29.832H131.911C132.977 29.832 133.788 30.1307 134.343 30.728C134.908 31.3253 135.191 32.1467 135.191 33.192C135.191 34.2373 134.908 35.0587 134.343 35.656C133.788 36.2533 132.977 36.552 131.911 36.552H129.527V41H127.735ZM129.527 35.064H131.639C132.748 35.064 133.303 34.552 133.303 33.528V32.84C133.303 31.8267 132.748 31.32 131.639 31.32H129.527V35.064ZM137.184 39.592H139.92V30.568H137.184V29.16H141.664V39.592H144.4V41H137.184V39.592ZM153.45 41C152.949 41 152.57 40.872 152.314 40.616C152.069 40.36 151.919 40.024 151.866 39.608H151.786C151.626 40.1093 151.333 40.4987 150.906 40.776C150.49 41.0533 149.957 41.192 149.306 41.192C148.463 41.192 147.791 40.9733 147.29 40.536C146.789 40.088 146.538 39.4747 146.538 38.696C146.538 37.896 146.831 37.288 147.418 36.872C148.015 36.4453 148.927 36.232 150.154 36.232H151.738V35.592C151.738 34.472 151.146 33.912 149.962 33.912C149.429 33.912 148.997 34.0187 148.666 34.232C148.335 34.4347 148.058 34.7067 147.834 35.048L146.794 34.2C147.029 33.752 147.423 33.368 147.978 33.048C148.533 32.7173 149.247 32.552 150.122 32.552C151.167 32.552 151.989 32.8027 152.586 33.304C153.183 33.8053 153.482 34.5307 153.482 35.48V39.624H154.522V41H153.45ZM149.802 39.912C150.367 39.912 150.831 39.784 151.194 39.528C151.557 39.272 151.738 38.9413 151.738 38.536V37.336H150.186C148.927 37.336 148.298 37.7147 148.298 38.472V38.792C148.298 39.1653 148.431 39.448 148.698 39.64C148.965 39.8213 149.333 39.912 149.802 39.912ZM162.388 32.744H164.148L160.148 42.6C159.935 43.1333 159.652 43.5333 159.3 43.8C158.959 44.0667 158.463 44.2 157.812 44.2H156.42V42.792H158.372L159.124 40.888L155.796 32.744H157.62L158.932 36.2L159.956 39.032H160.052L161.076 36.2L162.388 32.744Z" fill="white"/>
</svg>
