<svg width="27" height="24" viewBox="0 0 27 24" fill="none" xmlns="http://www.w3.org/2000/svg">
<path d="M23.7027 3.8133C23.1281 3.23843 22.4459 2.78241 21.695 2.47127C20.9441 2.16014 20.1393 2 19.3265 2C18.5137 2 17.7088 2.16014 16.9579 2.47127C16.207 2.78241 15.5248 3.23843 14.9502 3.8133L13.7577 5.0058L12.5652 3.8133C11.4045 2.65265 9.83036 2.0006 8.18895 2.0006C6.54754 2.0006 4.97336 2.65265 3.8127 3.8133C2.65205 4.97396 2 6.54814 2 8.18955C2 9.83097 2.65205 11.4052 3.8127 12.5658L5.0052 13.7583L13.7577 22.5108L22.5102 13.7583L23.7027 12.5658C24.2776 11.9912 24.7336 11.309 25.0447 10.5581C25.3559 9.80719 25.516 9.00235 25.516 8.18955C25.516 7.37676 25.3559 6.57192 25.0447 5.82103C24.7336 5.07014 24.2776 4.3879 23.7027 3.8133Z" stroke="#6EE755" stroke-width="2.5" stroke-linecap="round" stroke-linejoin="round"/>
</svg>
