<svg width="31" height="31" viewBox="0 0 31 31" fill="none" xmlns="http://www.w3.org/2000/svg">
<path d="M8.625 14.125L14.125 1.75C15.219 1.75 16.2682 2.1846 17.0418 2.95818C17.8154 3.73177 18.25 4.78098 18.25 5.875V11.375H26.0325C26.4311 11.3705 26.826 11.4527 27.1897 11.6159C27.5534 11.7792 27.8772 12.0195 28.1388 12.3203C28.4004 12.6212 28.5934 12.9753 28.7046 13.3581C28.8157 13.7409 28.8423 14.1434 28.7825 14.5375L26.885 26.9125C26.7856 27.5682 26.4525 28.166 25.9471 28.5955C25.4418 29.0251 24.7982 29.2575 24.135 29.25H8.625M8.625 14.125V29.25M8.625 14.125H4.5C3.77065 14.125 3.07118 14.4147 2.55546 14.9305C2.03973 15.4462 1.75 16.1457 1.75 16.875V26.5C1.75 27.2293 2.03973 27.9288 2.55546 28.4445C3.07118 28.9603 3.77065 29.25 4.5 29.25H8.625" stroke="#6EE755" stroke-width="2.5" stroke-linecap="round" stroke-linejoin="round"/>
</svg>
