<svg width="190" height="56" viewBox="0 0 190 56" fill="none" xmlns="http://www.w3.org/2000/svg">
<rect width="190" height="56" fill="#131313"/>
<path d="M41.3475 18.525C42.3198 18.5605 43.2707 18.8207 44.1256 19.2852C44.9805 19.7498 45.7162 20.406 46.275 21.2025C46.1625 21.2812 43.3275 22.9237 43.3613 26.3438C43.4063 30.4275 46.95 31.7888 46.9838 31.8113C46.9613 31.9013 46.4213 33.7463 45.1163 35.6475C43.9913 37.29 42.8213 38.9325 40.9875 38.9662C39.1875 39 38.5913 37.8862 36.5325 37.8862C34.4625 37.8862 33.81 38.9325 32.1 39C30.3338 39.0675 28.9725 37.2225 27.8475 35.58C25.5188 32.2275 23.7525 26.1075 26.1263 21.9675C26.6857 20.9685 27.4953 20.1321 28.4755 19.5404C29.4557 18.9487 30.5729 18.6221 31.7175 18.5925C33.4613 18.5588 35.1038 19.7625 36.1725 19.7625C37.2413 19.7625 39.2438 18.3113 41.3475 18.525ZM41.37 12C41.4867 13.5654 40.9814 15.1136 39.9638 16.3088C39.4876 16.9133 38.8787 17.4003 38.1842 17.7319C37.4898 18.0635 36.7283 18.231 35.9588 18.2213C35.9053 17.4653 36.0043 16.7064 36.2497 15.9894C36.4951 15.2724 36.882 14.6121 37.3875 14.0475C38.4045 12.881 39.8296 12.1483 41.37 12Z" fill="white"/>
<path d="M60.5658 12.624H62.9058C63.9298 12.624 64.6938 12.976 65.1978 13.68C65.7018 14.384 65.9538 15.428 65.9538 16.812C65.9538 18.196 65.7018 19.24 65.1978 19.944C64.6938 20.648 63.9298 21 62.9058 21H60.5658V12.624ZM62.8578 20.124C63.5298 20.124 64.0338 19.892 64.3698 19.428C64.7138 18.964 64.8858 18.308 64.8858 17.46V16.164C64.8858 15.316 64.7138 14.66 64.3698 14.196C64.0338 13.732 63.5298 13.5 62.8578 13.5H61.5738V20.124H62.8578ZM70.2211 21.144C69.7891 21.144 69.3971 21.068 69.0451 20.916C68.7011 20.764 68.4051 20.548 68.1571 20.268C67.9171 19.98 67.7331 19.64 67.6051 19.248C67.4771 18.848 67.4131 18.4 67.4131 17.904C67.4131 17.416 67.4771 16.972 67.6051 16.572C67.7331 16.172 67.9171 15.832 68.1571 15.552C68.4051 15.264 68.7011 15.044 69.0451 14.892C69.3971 14.74 69.7891 14.664 70.2211 14.664C70.6531 14.664 71.0411 14.74 71.3851 14.892C71.7371 15.044 72.0331 15.264 72.2731 15.552C72.5211 15.832 72.7091 16.172 72.8371 16.572C72.9651 16.972 73.0291 17.416 73.0291 17.904C73.0291 18.4 72.9651 18.848 72.8371 19.248C72.7091 19.64 72.5211 19.98 72.2731 20.268C72.0331 20.548 71.7371 20.764 71.3851 20.916C71.0411 21.068 70.6531 21.144 70.2211 21.144ZM70.2211 20.316C70.7571 20.316 71.1891 20.156 71.5171 19.836C71.8451 19.516 72.0091 19.02 72.0091 18.348V17.46C72.0091 16.788 71.8451 16.292 71.5171 15.972C71.1891 15.652 70.7571 15.492 70.2211 15.492C69.6851 15.492 69.2531 15.652 68.9251 15.972C68.5971 16.292 68.4331 16.788 68.4331 17.46V18.348C68.4331 19.02 68.5971 19.516 68.9251 19.836C69.2531 20.156 69.6851 20.316 70.2211 20.316ZM74.1764 14.808H75.0284L75.7364 20.16H75.8444L76.9004 14.808H77.9564L79.0124 20.16H79.1204L79.8284 14.808H80.6564L79.7084 21H78.4604L77.4764 15.816H77.3804L76.3724 21H75.1244L74.1764 14.808ZM82.1877 21V14.808H83.1477V15.816H83.1957C83.2597 15.664 83.3397 15.52 83.4357 15.384C83.5317 15.24 83.6477 15.116 83.7837 15.012C83.9277 14.908 84.0957 14.824 84.2877 14.76C84.4797 14.696 84.7037 14.664 84.9597 14.664C85.6077 14.664 86.1277 14.872 86.5197 15.288C86.9117 15.696 87.1077 16.276 87.1077 17.028V21H86.1477V17.196C86.1477 16.628 86.0237 16.208 85.7757 15.936C85.5277 15.656 85.1637 15.516 84.6837 15.516C84.4917 15.516 84.3037 15.54 84.1197 15.588C83.9357 15.636 83.7717 15.708 83.6277 15.804C83.4837 15.9 83.3677 16.024 83.2797 16.176C83.1917 16.328 83.1477 16.504 83.1477 16.704V21H82.1877ZM89.167 20.184H91.327V12.936H89.167V12.12H92.287V20.184H94.447V21H89.167V20.184ZM99.0023 21.144C98.5703 21.144 98.1783 21.068 97.8263 20.916C97.4823 20.764 97.1863 20.548 96.9383 20.268C96.6983 19.98 96.5143 19.64 96.3863 19.248C96.2583 18.848 96.1943 18.4 96.1943 17.904C96.1943 17.416 96.2583 16.972 96.3863 16.572C96.5143 16.172 96.6983 15.832 96.9383 15.552C97.1863 15.264 97.4823 15.044 97.8263 14.892C98.1783 14.74 98.5703 14.664 99.0023 14.664C99.4343 14.664 99.8223 14.74 100.166 14.892C100.518 15.044 100.814 15.264 101.054 15.552C101.302 15.832 101.49 16.172 101.618 16.572C101.746 16.972 101.81 17.416 101.81 17.904C101.81 18.4 101.746 18.848 101.618 19.248C101.49 19.64 101.302 19.98 101.054 20.268C100.814 20.548 100.518 20.764 100.166 20.916C99.8223 21.068 99.4343 21.144 99.0023 21.144ZM99.0023 20.316C99.5383 20.316 99.9703 20.156 100.298 19.836C100.626 19.516 100.79 19.02 100.79 18.348V17.46C100.79 16.788 100.626 16.292 100.298 15.972C99.9703 15.652 99.5383 15.492 99.0023 15.492C98.4663 15.492 98.0343 15.652 97.7063 15.972C97.3783 16.292 97.2143 16.788 97.2143 17.46V18.348C97.2143 19.02 97.3783 19.516 97.7063 19.836C98.0343 20.156 98.4663 20.316 99.0023 20.316ZM108.538 21C108.162 21 107.894 20.904 107.734 20.712C107.574 20.52 107.474 20.28 107.434 19.992H107.374C107.238 20.352 107.018 20.636 106.714 20.844C106.418 21.044 106.018 21.144 105.514 21.144C104.866 21.144 104.35 20.976 103.966 20.64C103.582 20.304 103.39 19.844 103.39 19.26C103.39 18.684 103.598 18.24 104.014 17.928C104.438 17.616 105.118 17.46 106.054 17.46H107.374V16.848C107.374 16.392 107.246 16.052 106.99 15.828C106.734 15.596 106.37 15.48 105.898 15.48C105.482 15.48 105.142 15.564 104.878 15.732C104.614 15.892 104.402 16.112 104.242 16.392L103.594 15.912C103.674 15.752 103.782 15.596 103.918 15.444C104.054 15.292 104.222 15.16 104.422 15.048C104.622 14.928 104.85 14.836 105.106 14.772C105.362 14.7 105.646 14.664 105.958 14.664C106.686 14.664 107.262 14.848 107.686 15.216C108.118 15.584 108.334 16.096 108.334 16.752V20.16H109.198V21H108.538ZM105.682 20.34C105.93 20.34 106.154 20.312 106.354 20.256C106.562 20.192 106.742 20.112 106.894 20.016C107.046 19.912 107.162 19.792 107.242 19.656C107.33 19.512 107.374 19.36 107.374 19.2V18.18H106.054C105.478 18.18 105.058 18.26 104.794 18.42C104.53 18.58 104.398 18.812 104.398 19.116V19.368C104.398 19.688 104.51 19.932 104.734 20.1C104.966 20.26 105.282 20.34 105.682 20.34ZM114.893 19.992H114.845C114.445 20.76 113.809 21.144 112.937 21.144C112.177 21.144 111.581 20.86 111.149 20.292C110.725 19.724 110.513 18.928 110.513 17.904C110.513 16.88 110.725 16.084 111.149 15.516C111.581 14.948 112.177 14.664 112.937 14.664C113.809 14.664 114.445 15.048 114.845 15.816H114.893V12.12H115.853V21H114.893V19.992ZM113.309 20.292C113.525 20.292 113.729 20.264 113.921 20.208C114.113 20.152 114.281 20.072 114.425 19.968C114.569 19.856 114.681 19.724 114.761 19.572C114.849 19.412 114.893 19.228 114.893 19.02V16.788C114.893 16.58 114.849 16.4 114.761 16.248C114.681 16.088 114.569 15.956 114.425 15.852C114.281 15.74 114.113 15.656 113.921 15.6C113.729 15.544 113.525 15.516 113.309 15.516C112.749 15.516 112.313 15.688 112.001 16.032C111.697 16.368 111.545 16.816 111.545 17.376V18.432C111.545 18.992 111.697 19.444 112.001 19.788C112.313 20.124 112.749 20.292 113.309 20.292ZM127.784 21.144C127.352 21.144 126.96 21.068 126.608 20.916C126.264 20.764 125.968 20.548 125.72 20.268C125.48 19.98 125.296 19.64 125.168 19.248C125.04 18.848 124.976 18.4 124.976 17.904C124.976 17.416 125.04 16.972 125.168 16.572C125.296 16.172 125.48 15.832 125.72 15.552C125.968 15.264 126.264 15.044 126.608 14.892C126.96 14.74 127.352 14.664 127.784 14.664C128.216 14.664 128.604 14.74 128.948 14.892C129.3 15.044 129.596 15.264 129.836 15.552C130.084 15.832 130.272 16.172 130.4 16.572C130.528 16.972 130.592 17.416 130.592 17.904C130.592 18.4 130.528 18.848 130.4 19.248C130.272 19.64 130.084 19.98 129.836 20.268C129.596 20.548 129.3 20.764 128.948 20.916C128.604 21.068 128.216 21.144 127.784 21.144ZM127.784 20.316C128.32 20.316 128.752 20.156 129.08 19.836C129.408 19.516 129.572 19.02 129.572 18.348V17.46C129.572 16.788 129.408 16.292 129.08 15.972C128.752 15.652 128.32 15.492 127.784 15.492C127.248 15.492 126.816 15.652 126.488 15.972C126.16 16.292 125.996 16.788 125.996 17.46V18.348C125.996 19.02 126.16 19.516 126.488 19.836C126.816 20.156 127.248 20.316 127.784 20.316ZM132.555 21V14.808H133.515V15.816H133.563C133.627 15.664 133.707 15.52 133.803 15.384C133.899 15.24 134.015 15.116 134.151 15.012C134.295 14.908 134.463 14.824 134.655 14.76C134.847 14.696 135.071 14.664 135.327 14.664C135.975 14.664 136.495 14.872 136.887 15.288C137.279 15.696 137.475 16.276 137.475 17.028V21H136.515V17.196C136.515 16.628 136.391 16.208 136.143 15.936C135.895 15.656 135.531 15.516 135.051 15.516C134.859 15.516 134.671 15.54 134.487 15.588C134.303 15.636 134.139 15.708 133.995 15.804C133.851 15.9 133.735 16.024 133.647 16.176C133.559 16.328 133.515 16.504 133.515 16.704V21H132.555Z" fill="white"/>
<path d="M66.6264 41L65.7784 38.024H62.2264L61.3784 41H59.5544L62.8184 29.832H65.2664L68.5304 41H66.6264ZM64.0664 31.64H63.9384L62.5624 36.536H65.4424L64.0664 31.64ZM70.0921 32.744H71.8361V34.152H71.9321C72.1775 33.6507 72.5028 33.2613 72.9081 32.984C73.3135 32.696 73.8201 32.552 74.4281 32.552C75.3988 32.552 76.1721 32.9147 76.7481 33.64C77.3241 34.3653 77.6121 35.4427 77.6121 36.872C77.6121 38.3013 77.3241 39.3787 76.7481 40.104C76.1721 40.8293 75.3988 41.192 74.4281 41.192C73.8201 41.192 73.3135 41.0533 72.9081 40.776C72.5028 40.488 72.1775 40.0933 71.9321 39.592H71.8361V44.2H70.0921V32.744ZM73.7081 39.768C74.3695 39.768 74.8761 39.5653 75.2281 39.16C75.5908 38.7547 75.7721 38.216 75.7721 37.544V36.2C75.7721 35.528 75.5908 34.9893 75.2281 34.584C74.8761 34.1787 74.3695 33.976 73.7081 33.976C73.4521 33.976 73.2121 34.008 72.9881 34.072C72.7641 34.136 72.5668 34.232 72.3961 34.36C72.2255 34.488 72.0868 34.648 71.9801 34.84C71.8841 35.0213 71.8361 35.24 71.8361 35.496V38.248C71.8361 38.504 71.8841 38.728 71.9801 38.92C72.0868 39.1013 72.2255 39.256 72.3961 39.384C72.5668 39.512 72.7641 39.608 72.9881 39.672C73.2121 39.736 73.4521 39.768 73.7081 39.768ZM79.6859 32.744H81.4299V34.152H81.5259C81.7712 33.6507 82.0965 33.2613 82.5019 32.984C82.9072 32.696 83.4139 32.552 84.0219 32.552C84.9925 32.552 85.7659 32.9147 86.3419 33.64C86.9179 34.3653 87.2059 35.4427 87.2059 36.872C87.2059 38.3013 86.9179 39.3787 86.3419 40.104C85.7659 40.8293 84.9925 41.192 84.0219 41.192C83.4139 41.192 82.9072 41.0533 82.5019 40.776C82.0965 40.488 81.7712 40.0933 81.5259 39.592H81.4299V44.2H79.6859V32.744ZM83.3019 39.768C83.9632 39.768 84.4699 39.5653 84.8219 39.16C85.1845 38.7547 85.3659 38.216 85.3659 37.544V36.2C85.3659 35.528 85.1845 34.9893 84.8219 34.584C84.4699 34.1787 83.9632 33.976 83.3019 33.976C83.0459 33.976 82.8059 34.008 82.5819 34.072C82.3579 34.136 82.1605 34.232 81.9899 34.36C81.8192 34.488 81.6805 34.648 81.5739 34.84C81.4779 35.0213 81.4299 35.24 81.4299 35.496V38.248C81.4299 38.504 81.4779 38.728 81.5739 38.92C81.6805 39.1013 81.8192 39.256 81.9899 39.384C82.1605 39.512 82.3579 39.608 82.5819 39.672C82.8059 39.736 83.0459 39.768 83.3019 39.768ZM89.2156 39.592H91.9516V30.568H89.2156V29.16H93.6956V39.592H96.4316V41H89.2156V39.592ZM102.585 41.192C101.956 41.192 101.391 41.0907 100.889 40.888C100.388 40.6853 99.9667 40.3973 99.6254 40.024C99.284 39.6507 99.0227 39.2027 98.8414 38.68C98.66 38.1467 98.5694 37.5493 98.5694 36.888C98.5694 36.2267 98.66 35.6293 98.8414 35.096C99.0334 34.5627 99.2947 34.1093 99.6254 33.736C99.9667 33.352 100.377 33.0587 100.857 32.856C101.337 32.6533 101.871 32.552 102.457 32.552C103.033 32.552 103.556 32.6533 104.025 32.856C104.495 33.048 104.895 33.3253 105.225 33.688C105.556 34.0507 105.807 34.4827 105.977 34.984C106.159 35.4853 106.249 36.04 106.249 36.648V37.304H100.329V37.576C100.329 38.2267 100.532 38.76 100.937 39.176C101.343 39.5813 101.903 39.784 102.617 39.784C103.151 39.784 103.604 39.672 103.977 39.448C104.361 39.2133 104.671 38.904 104.905 38.52L105.993 39.48C105.716 39.96 105.289 40.3653 104.713 40.696C104.148 41.0267 103.439 41.192 102.585 41.192ZM102.457 33.88C102.148 33.88 101.86 33.9333 101.593 34.04C101.337 34.1467 101.113 34.3013 100.921 34.504C100.74 34.696 100.596 34.9253 100.489 35.192C100.383 35.4587 100.329 35.752 100.329 36.072V36.184H104.473V36.024C104.473 35.3733 104.287 34.856 103.913 34.472C103.551 34.0773 103.065 33.88 102.457 33.88ZM121.501 41.192C120.53 41.192 119.714 41.0213 119.053 40.68C118.392 40.3387 117.848 39.8853 117.421 39.32L118.573 38.216C119 38.728 119.453 39.1067 119.933 39.352C120.413 39.5867 120.957 39.704 121.565 39.704C122.269 39.704 122.808 39.544 123.181 39.224C123.565 38.904 123.757 38.4453 123.757 37.848C123.757 37.368 123.618 37 123.341 36.744C123.064 36.4773 122.589 36.2853 121.917 36.168L120.701 35.976C120.168 35.8907 119.72 35.752 119.357 35.56C118.994 35.3573 118.701 35.1227 118.477 34.856C118.253 34.5787 118.088 34.2747 117.981 33.944C117.885 33.6027 117.837 33.2453 117.837 32.872C117.837 31.816 118.178 31.016 118.861 30.472C119.544 29.9173 120.482 29.64 121.677 29.64C122.562 29.64 123.314 29.784 123.933 30.072C124.562 30.3493 125.069 30.744 125.453 31.256L124.333 32.376C124.024 32.0027 123.656 31.704 123.229 31.48C122.813 31.2453 122.296 31.128 121.677 31.128C121.016 31.128 120.509 31.272 120.157 31.56C119.816 31.8373 119.645 32.248 119.645 32.792C119.645 33.2507 119.778 33.6133 120.045 33.88C120.322 34.136 120.808 34.3227 121.501 34.44L122.685 34.648C123.688 34.8293 124.418 35.1973 124.877 35.752C125.336 36.296 125.565 36.9627 125.565 37.752C125.565 38.264 125.474 38.7333 125.293 39.16C125.122 39.5867 124.861 39.9493 124.509 40.248C124.168 40.5467 123.741 40.7813 123.229 40.952C122.728 41.112 122.152 41.192 121.501 41.192ZM131.687 41C130.961 41 130.428 40.808 130.087 40.424C129.745 40.0293 129.575 39.5227 129.575 38.904V34.152H127.031V32.744H128.839C129.148 32.744 129.367 32.6853 129.495 32.568C129.623 32.44 129.687 32.216 129.687 31.896V29.832H131.319V32.744H134.839V34.152H131.319V39.592H134.839V41H131.687ZM140.784 41.192C140.176 41.192 139.627 41.0907 139.136 40.888C138.656 40.6853 138.246 40.3973 137.904 40.024C137.574 39.6507 137.318 39.1973 137.136 38.664C136.955 38.1307 136.864 37.5333 136.864 36.872C136.864 36.2107 136.955 35.6133 137.136 35.08C137.318 34.5467 137.574 34.0933 137.904 33.72C138.246 33.3467 138.656 33.0587 139.136 32.856C139.627 32.6533 140.176 32.552 140.784 32.552C141.392 32.552 141.936 32.6533 142.416 32.856C142.907 33.0587 143.318 33.3467 143.648 33.72C143.99 34.0933 144.251 34.5467 144.432 35.08C144.614 35.6133 144.704 36.2107 144.704 36.872C144.704 37.5333 144.614 38.1307 144.432 38.664C144.251 39.1973 143.99 39.6507 143.648 40.024C143.318 40.3973 142.907 40.6853 142.416 40.888C141.936 41.0907 141.392 41.192 140.784 41.192ZM140.784 39.816C141.424 39.816 141.931 39.624 142.304 39.24C142.688 38.8453 142.88 38.264 142.88 37.496V36.248C142.88 35.48 142.688 34.904 142.304 34.52C141.931 34.1253 141.424 33.928 140.784 33.928C140.144 33.928 139.632 34.1253 139.248 34.52C138.875 34.904 138.688 35.48 138.688 36.248V37.496C138.688 38.264 138.875 38.8453 139.248 39.24C139.632 39.624 140.144 39.816 140.784 39.816ZM146.794 39.592H148.986V34.152H146.794V32.744H150.73V34.936H150.826C150.901 34.648 151.007 34.3707 151.146 34.104C151.285 33.8373 151.461 33.608 151.674 33.416C151.887 33.2133 152.149 33.0533 152.458 32.936C152.767 32.808 153.13 32.744 153.546 32.744H154.538V34.408H152.906C152.266 34.408 151.743 34.6 151.338 34.984C150.933 35.3573 150.73 35.864 150.73 36.504V39.592H153.722V41H146.794V39.592ZM160.148 41.192C159.519 41.192 158.953 41.0907 158.452 40.888C157.951 40.6853 157.529 40.3973 157.188 40.024C156.847 39.6507 156.585 39.2027 156.404 38.68C156.223 38.1467 156.132 37.5493 156.132 36.888C156.132 36.2267 156.223 35.6293 156.404 35.096C156.596 34.5627 156.857 34.1093 157.188 33.736C157.529 33.352 157.94 33.0587 158.42 32.856C158.9 32.6533 159.433 32.552 160.02 32.552C160.596 32.552 161.119 32.6533 161.588 32.856C162.057 33.048 162.457 33.3253 162.788 33.688C163.119 34.0507 163.369 34.4827 163.54 34.984C163.721 35.4853 163.812 36.04 163.812 36.648V37.304H157.892V37.576C157.892 38.2267 158.095 38.76 158.5 39.176C158.905 39.5813 159.465 39.784 160.18 39.784C160.713 39.784 161.167 39.672 161.54 39.448C161.924 39.2133 162.233 38.904 162.468 38.52L163.556 39.48C163.279 39.96 162.852 40.3653 162.276 40.696C161.711 41.0267 161.001 41.192 160.148 41.192ZM160.02 33.88C159.711 33.88 159.423 33.9333 159.156 34.04C158.9 34.1467 158.676 34.3013 158.484 34.504C158.303 34.696 158.159 34.9253 158.052 35.192C157.945 35.4587 157.892 35.752 157.892 36.072V36.184H162.036V36.024C162.036 35.3733 161.849 34.856 161.476 34.472C161.113 34.0773 160.628 33.88 160.02 33.88Z" fill="white"/>
</svg>
