<svg width="130" height="22" viewBox="0 0 130 22" fill="none" xmlns="http://www.w3.org/2000/svg">
<path d="M0 0.968994H4.75648C6.79933 0.968994 8.3086 1.65346 9.28429 3.02241C10.2752 4.39135 10.7707 6.39092 10.7707 9.02114C10.7707 11.6514 10.2752 13.6509 9.28429 15.0199C8.3086 16.3888 6.79933 17.0733 4.75648 17.0733H0V0.968994ZM4.59641 14.9507C5.77028 14.9507 6.63925 14.5584 7.20332 13.774C7.78264 12.9741 8.0723 11.8359 8.0723 10.3593V7.68296C8.0723 6.20635 7.78264 5.07582 7.20332 4.29137C6.63925 3.49154 5.77028 3.09162 4.59641 3.09162H2.53831V14.9507H4.59641Z" fill="#6EE755"/>
<path d="M18.9484 17.3501C18.0489 17.3501 17.2409 17.204 16.5244 16.9118C15.8079 16.6195 15.2057 16.2042 14.7179 15.6659C14.23 15.1275 13.8565 14.4815 13.5973 13.7278C13.3382 12.9588 13.2086 12.0974 13.2086 11.1438C13.2086 10.1901 13.3382 9.32876 13.5973 8.5597C13.8718 7.79063 14.2453 7.13692 14.7179 6.59857C15.2057 6.04484 15.7926 5.62186 16.4787 5.32961C17.1647 5.03736 17.927 4.89124 18.7654 4.89124C19.5887 4.89124 20.3357 5.03736 21.0065 5.32961C21.6773 5.60647 22.249 6.00639 22.7216 6.52936C23.1942 7.05232 23.5524 7.67527 23.7963 8.39819C24.0555 9.12112 24.1851 9.92095 24.1851 10.7977V11.7436H15.724V12.1359C15.724 13.0741 16.0137 13.8432 16.593 14.4431C17.1723 15.0276 17.9727 15.3198 18.9941 15.3198C19.7564 15.3198 20.4043 15.1583 20.9379 14.8353C21.4867 14.4969 21.9288 14.0508 22.2642 13.4971L23.8192 14.8814C23.4228 15.5736 22.813 16.1581 21.9898 16.6349C21.1818 17.1117 20.168 17.3501 18.9484 17.3501ZM18.7654 6.80622C18.3233 6.80622 17.9117 6.88313 17.5306 7.03694C17.1647 7.19076 16.8446 7.41378 16.5701 7.70603C16.311 7.9829 16.1052 8.31359 15.9527 8.69813C15.8003 9.08266 15.724 9.50565 15.724 9.96709V10.1286H21.6468V9.89787C21.6468 8.95961 21.38 8.21362 20.8464 7.65989C20.3281 7.09078 19.6344 6.80622 18.7654 6.80622Z" fill="#6EE755"/>
<path d="M27.2633 19.4074H31.1737V2.03034H27.2633V0H33.6663V19.4074H37.5766V21.4378H27.2633V19.4074Z" fill="white"/>
<path d="M48.5671 15.043H48.4527C48.3308 15.3506 48.1707 15.6505 47.9725 15.9428C47.7896 16.2196 47.5609 16.4657 47.2865 16.6811C47.0121 16.881 46.6919 17.0425 46.326 17.1656C45.9601 17.2887 45.5333 17.3502 45.0454 17.3502C43.8563 17.3502 42.8959 16.958 42.1641 16.1735C41.4323 15.3891 41.0665 14.2739 41.0665 12.8281V5.16814H43.559V12.4589C43.559 14.3508 44.3747 15.2968 46.0059 15.2968C46.326 15.2968 46.6386 15.2583 46.9435 15.1814C47.2484 15.0891 47.5228 14.9584 47.7667 14.7892C48.0106 14.62 48.2012 14.4123 48.3384 14.1662C48.4908 13.9047 48.5671 13.5971 48.5671 13.2434V5.16814H51.0596V17.0733H48.5671V15.043Z" fill="white"/>
<path d="M59.8548 17.3502C58.5742 17.3502 57.4689 17.1425 56.539 16.7272C55.6243 16.3119 54.8849 15.7582 54.3208 15.066L55.8529 13.6817C56.3713 14.2508 56.9506 14.6892 57.5909 14.9968C58.2464 15.2891 59.0163 15.4352 59.9005 15.4352C60.7085 15.4352 61.3564 15.2968 61.8443 15.0199C62.3474 14.743 62.5989 14.3124 62.5989 13.7279C62.5989 13.4818 62.5532 13.2741 62.4617 13.1049C62.3702 12.9357 62.2406 12.7973 62.0729 12.6896C61.9052 12.582 61.7071 12.4974 61.4784 12.4358C61.265 12.3743 61.0363 12.3282 60.7924 12.2974L58.9172 11.9975C58.4599 11.9359 57.9949 11.836 57.5223 11.6975C57.0497 11.5591 56.6228 11.3668 56.2417 11.1207C55.8758 10.8592 55.5709 10.5285 55.327 10.1286C55.0983 9.72871 54.984 9.22113 54.984 8.60587C54.984 7.39074 55.4413 6.46786 56.356 5.83723C57.286 5.20659 58.5056 4.89127 60.0148 4.89127C61.1125 4.89127 62.0577 5.06047 62.8504 5.39886C63.6584 5.72187 64.3292 6.17562 64.8628 6.76011L63.4679 8.23672C63.163 7.88295 62.7285 7.55994 62.1644 7.26769C61.6003 6.96007 60.8533 6.80625 59.9234 6.80625C58.2617 6.80625 57.4308 7.33691 57.4308 8.39822C57.4308 8.90581 57.6061 9.25958 57.9568 9.45954C58.3226 9.64411 58.7495 9.76717 59.2373 9.82869L61.1125 10.1286C61.5851 10.2055 62.0501 10.3055 62.5074 10.4286C62.98 10.5516 63.3993 10.7439 63.7652 11.0054C64.1463 11.2515 64.4512 11.5745 64.6799 11.9744C64.9238 12.3743 65.0457 12.8819 65.0457 13.4971C65.0457 14.6969 64.5808 15.6428 63.6508 16.335C62.7361 17.0118 61.4708 17.3502 59.8548 17.3502Z" fill="white"/>
<path d="M73.9377 22C73.2974 22 72.8477 21.8693 72.5885 21.6078C72.3446 21.3463 72.2227 21.0233 72.2227 20.6387V20.1542C72.2227 19.7697 72.3446 19.4467 72.5885 19.1852C72.8477 18.9237 73.2898 18.793 73.9149 18.793C74.5552 18.793 74.9973 18.9237 75.2412 19.1852C75.5004 19.4467 75.6299 19.7697 75.6299 20.1542V20.6387C75.6299 21.0233 75.5004 21.3463 75.2412 21.6078C74.9973 21.8693 74.5628 22 73.9377 22ZM68.9929 15.043H73.0176V7.19848H68.9929V5.16814H75.5102V15.043H79.2834V17.0733H68.9929V15.043Z" fill="white"/>
<path d="M87.2553 17.3502C86.3863 17.3502 85.6012 17.2041 84.8999 16.9118C84.2139 16.6196 83.6269 16.2043 83.1391 15.6659C82.6665 15.1276 82.3006 14.4739 82.0414 13.7048C81.7823 12.9357 81.6527 12.0744 81.6527 11.1207C81.6527 10.1671 81.7823 9.30572 82.0414 8.53666C82.3006 7.76759 82.6665 7.11388 83.1391 6.57553C83.6269 6.03718 84.2139 5.62189 84.8999 5.32964C85.6012 5.0374 86.3863 4.89127 87.2553 4.89127C88.1243 4.89127 88.9018 5.0374 89.5878 5.32964C90.2891 5.62189 90.876 6.03718 91.3486 6.57553C91.8364 7.11388 92.21 7.76759 92.4691 8.53666C92.7283 9.30572 92.8579 10.1671 92.8579 11.1207C92.8579 12.0744 92.7283 12.9357 92.4691 13.7048C92.21 14.4739 91.8364 15.1276 91.3486 15.6659C90.876 16.2043 90.2891 16.6196 89.5878 16.9118C88.9018 17.2041 88.1243 17.3502 87.2553 17.3502ZM87.2553 15.366C88.17 15.366 88.8941 15.0891 89.4277 14.5354C89.9765 13.9663 90.251 13.128 90.251 12.0205V10.2209C90.251 9.11346 89.9765 8.28286 89.4277 7.72913C88.8941 7.16002 88.17 6.87547 87.2553 6.87547C86.3406 6.87547 85.6088 7.16002 85.06 7.72913C84.5264 8.28286 84.2596 9.11346 84.2596 10.2209V12.0205C84.2596 13.128 84.5264 13.9663 85.06 14.5354C85.6088 15.0891 86.3406 15.366 87.2553 15.366Z" fill="white"/>
<path d="M96.0275 17.0733V5.16814H98.5201V7.19848H98.6345C98.7564 6.89085 98.9089 6.5986 99.0918 6.32174C99.29 6.02949 99.5263 5.78339 99.8007 5.58343C100.075 5.36809 100.395 5.1989 100.761 5.07585C101.127 4.9528 101.554 4.89127 102.042 4.89127C103.231 4.89127 104.191 5.2835 104.923 6.06795C105.655 6.8524 106.021 7.96755 106.021 9.41339V17.0733H103.528V9.78255C103.528 7.89064 102.713 6.94468 101.081 6.94468C100.761 6.94468 100.449 6.99083 100.144 7.08312C99.8388 7.16002 99.5644 7.28307 99.3205 7.45227C99.0766 7.62146 98.8784 7.8368 98.7259 8.09829C98.5887 8.35977 98.5201 8.65971 98.5201 8.9981V17.0733H96.0275Z" fill="white"/>
<path d="M119.069 17.0733C118.353 17.0733 117.812 16.8887 117.446 16.5196C117.095 16.1504 116.882 15.6659 116.805 15.066H116.691C116.462 15.789 116.043 16.3504 115.433 16.7503C114.839 17.1502 114.076 17.3502 113.147 17.3502C111.942 17.3502 110.982 17.0349 110.265 16.4042C109.549 15.7582 109.19 14.8738 109.19 13.7509C109.19 12.5973 109.61 11.7206 110.448 11.1207C111.302 10.5055 112.605 10.1978 114.359 10.1978H116.622V9.27496C116.622 7.65992 115.776 6.8524 114.084 6.8524C113.322 6.8524 112.704 7.00621 112.232 7.31384C111.759 7.60608 111.363 7.99831 111.043 8.49051L109.556 7.26769C109.892 6.62168 110.456 6.06795 111.248 5.60651C112.041 5.12968 113.063 4.89127 114.313 4.89127C115.807 4.89127 116.981 5.25274 117.834 5.97566C118.688 6.69858 119.115 7.74452 119.115 9.11346V15.0891H120.601V17.0733H119.069ZM113.855 15.5044C114.663 15.5044 115.327 15.3198 115.845 14.9507C116.363 14.5815 116.622 14.1047 116.622 13.5202V11.7898H114.404C112.605 11.7898 111.706 12.3359 111.706 13.4279V13.8894C111.706 14.4277 111.896 14.8353 112.278 15.1122C112.659 15.3737 113.185 15.5044 113.855 15.5044Z" fill="white"/>
<path d="M92.4691 19.4074H123.597V2.21492H119.687V0.184575H126.09V19.4074H130V21.4378H92.4691V19.4074Z" fill="white"/>
</svg>
