<svg width="24" height="22" viewBox="0 0 24 22" fill="none" xmlns="http://www.w3.org/2000/svg">
<path d="M10.1534 1.43982C10.8366 -0.20276 13.1635 -0.202761 13.8467 1.43982L15.4984 5.41118C15.7864 6.10365 16.4377 6.57679 17.1852 6.63672L21.4727 6.98044C23.246 7.12261 23.965 9.33562 22.6139 10.493L19.3474 13.2911C18.7778 13.779 18.5291 14.5446 18.7031 15.2741L19.7011 19.4579C20.1138 21.1883 18.2313 22.556 16.7131 21.6287L13.0425 19.3867C12.4025 18.9958 11.5975 18.9958 10.9575 19.3867L7.28688 21.6287C5.76868 22.556 3.88618 21.1883 4.29895 19.4579L5.29694 15.2741C5.47095 14.5446 5.22221 13.779 4.65263 13.2911L1.38607 10.493C0.0350009 9.33563 0.754052 7.12261 2.52736 6.98044L6.81477 6.63672C7.56235 6.57679 8.21357 6.10365 8.50159 5.41118L10.1534 1.43982Z" fill="#6EE755"/>
</svg>
